{"glyphs":{"0":{"ha":1164,"x_min":0,"x_max":0,"o":"m 582 -12 b 1106 515 876 -12 1106 221 b 582 1022 1106 811 876 1022 b 58 515 286 1022 58 811 b 582 -12 58 221 286 -12 z m 928 507 b 581 164 928 313 803 164 b 235 507 360 164 235 313 b 582 844 235 701 360 844 b 928 507 801 844 928 701 z "},"1":{"ha":535,"x_min":0,"x_max":0,"o":"m 447 0 l 447 679 b 131 1010 447 888 333 1010 l 33 1010 l 33 833 l 131 833 b 272 679 222 833 272 779 l 272 0 z "},"2":{"ha":1146,"x_min":0,"x_max":0,"o":"m 1057 0 l 1057 176 l 254 176 l 254 308 b 399 439 254 394 304 439 l 765 439 b 1074 726 957 439 1074 560 b 764 1010 1074 889 964 1010 l 96 1010 l 96 833 l 764 833 b 892 710 843 833 892 786 b 764 588 892 633 840 588 l 399 588 b 88 296 196 588 88 492 l 88 0 z "},"3":{"ha":1149,"x_min":0,"x_max":0,"o":"m 756 0 b 1081 306 953 0 1081 122 b 922 533 1081 424 1014 504 b 1061 749 997 557 1061 621 b 736 1010 1061 921 932 1010 l 68 1010 l 68 835 l 701 835 b 883 710 818 835 883 803 b 736 588 883 622 836 588 l 303 588 l 303 439 l 749 439 b 901 310 847 439 901 393 b 713 176 901 222 824 176 l 64 176 l 64 0 z "},"4":{"ha":1174,"x_min":0,"x_max":0,"o":"m 993 0 l 993 269 l 1139 269 l 1139 439 l 993 439 l 993 1010 l 817 1010 l 817 439 l 399 439 b 243 594 293 439 243 478 l 243 1010 l 67 1010 l 67 593 b 399 269 67 369 188 269 l 817 269 l 817 0 z "},"5":{"ha":1229,"x_min":0,"x_max":0,"o":"m 844 0 b 1157 296 1054 0 1157 126 b 844 588 1157 492 1047 588 l 269 588 l 269 833 l 1108 833 l 1108 1010 l 88 1010 l 88 439 l 844 439 b 990 308 938 439 990 394 b 844 176 990 229 939 176 l 88 176 l 88 0 z "},"6":{"ha":1211,"x_min":0,"x_max":0,"o":"m 831 0 b 1138 307 1021 0 1138 111 b 831 589 1138 501 1024 589 l 239 589 b 517 833 261 760 357 833 l 1096 833 l 1096 1010 l 517 1010 b 58 515 232 1010 58 860 b 517 0 58 169 232 0 z m 814 439 b 968 314 915 439 968 397 b 814 176 968 226 914 176 l 517 176 b 238 439 353 176 256 257 z "},"7":{"ha":1050,"x_min":0,"x_max":0,"o":"m 299 0 l 988 843 b 1021 926 1015 876 1021 900 b 910 1010 1021 972 989 1010 l 61 1010 l 61 833 l 760 833 l 69 0 z "},"8":{"ha":1247,"x_min":0,"x_max":0,"o":"m 851 0 b 1176 306 1049 0 1176 121 b 1018 533 1176 424 1110 504 b 1158 749 1093 557 1158 621 b 832 1010 1158 921 1028 1010 l 415 1010 b 90 749 219 1010 90 921 b 229 533 90 621 154 557 b 71 306 138 504 71 424 b 396 0 71 121 199 0 z m 844 439 b 999 308 943 439 999 392 b 808 176 999 221 919 176 l 439 176 b 249 308 328 176 249 221 b 403 439 249 392 304 439 z m 799 835 b 979 710 914 835 979 803 b 832 588 979 622 932 588 l 415 588 b 268 710 315 588 268 622 b 449 835 268 803 333 835 z "},"9":{"ha":1196,"x_min":0,"x_max":0,"o":"m 679 0 b 1138 494 963 0 1138 150 b 679 1010 1138 840 963 1010 l 350 1010 b 58 694 171 1010 58 874 b 350 397 58 486 167 397 l 953 397 b 679 176 925 242 831 176 l 172 176 l 172 0 z m 238 685 b 379 832 238 779 292 832 l 679 832 b 960 544 850 832 947 743 l 379 544 b 238 685 290 544 238 589 z "},"\u0017":{"ha":408,"x_min":0,"x_max":0,"o":""}," ":{"ha":408,"x_min":0,"x_max":0,"o":""},"!":{"ha":414,"x_min":0,"x_max":0,"o":"m 290 325 l 290 1011 l 124 1011 l 124 325 z m 210 -12 b 304 83 265 -12 304 26 b 210 176 304 138 265 176 b 115 83 157 176 115 138 b 210 -12 115 26 157 -12 z "},"\"":{"ha":628,"x_min":0,"x_max":0,"o":"m 501 647 l 533 1010 l 354 1010 l 388 647 z m 242 647 l 274 1010 l 94 1010 l 126 647 z "},"#":{"ha":968,"x_min":0,"x_max":0,"o":"m 561 0 l 643 274 l 806 274 l 806 392 l 679 392 l 751 635 l 914 635 l 914 751 l 788 751 l 865 1010 l 740 1010 l 663 751 l 457 751 l 535 1010 l 408 1010 l 331 751 l 168 751 l 168 635 l 294 635 l 222 392 l 61 392 l 61 274 l 186 274 l 106 0 l 229 0 l 311 274 l 518 274 l 436 0 z m 554 392 l 347 392 l 419 635 l 626 635 z "},"$":{"ha":1033,"x_min":0,"x_max":0,"o":"m 700 99 b 951 336 871 99 951 200 b 700 571 951 496 863 571 l 563 571 l 563 769 l 913 769 l 913 911 l 563 911 l 563 1010 l 485 1010 l 485 911 l 328 911 b 79 685 167 911 79 814 b 326 454 79 550 174 454 l 485 454 l 485 243 l 90 243 l 90 99 l 485 99 l 485 0 l 563 0 l 563 99 z m 563 243 l 563 454 l 700 454 b 817 347 775 454 817 419 b 700 243 817 283 776 243 z m 485 571 l 328 571 b 226 671 267 571 226 608 b 328 769 226 731 264 769 l 485 769 z "},"%":{"ha":1340,"x_min":0,"x_max":0,"o":"m 319 514 b 582 778 467 514 582 632 b 319 1032 582 926 467 1032 b 58 778 171 1032 58 926 b 319 514 58 632 171 514 z m 493 774 b 319 603 493 676 429 603 b 146 774 208 603 146 676 b 319 943 146 871 210 943 b 493 774 429 943 493 871 z m 256 -93 l 1165 1071 l 1047 1071 l 135 -93 z m 1019 -21 b 1282 243 1167 -21 1282 97 b 1019 497 1282 392 1167 497 b 758 243 871 497 758 392 b 1019 -21 758 97 871 -21 z m 1193 239 b 1019 68 1193 142 1129 68 b 846 239 908 68 846 142 b 1019 408 846 336 910 408 b 1193 239 1129 408 1193 336 z "},"&":{"ha":1054,"x_min":0,"x_max":0,"o":"m 1014 0 l 1014 176 l 832 176 l 832 440 l 951 440 l 951 588 l 413 588 b 265 710 314 588 265 632 b 408 835 265 792 314 835 l 606 835 l 606 1010 l 414 1010 b 88 749 217 1010 88 921 b 226 533 88 621 151 557 b 68 307 136 504 68 422 b 393 0 68 121 193 0 z m 656 176 l 422 176 b 246 311 310 176 246 225 b 425 440 246 410 310 440 l 656 440 z "},"'":{"ha":354,"x_min":0,"x_max":0,"o":"m 233 647 l 267 1010 l 88 1010 l 121 647 z "},"(":{"ha":494,"x_min":0,"x_max":0,"o":"m 407 -124 b 243 514 289 125 243 325 b 406 1147 243 701 296 899 l 278 1147 b 131 515 179 917 131 719 b 282 -124 131 310 175 110 z "},")":{"ha":493,"x_min":0,"x_max":0,"o":"m 213 -124 b 364 515 319 110 364 310 b 215 1147 364 719 315 917 l 90 1147 b 250 514 199 899 250 701 b 88 -124 250 325 204 125 z "},"*":{"ha":651,"x_min":0,"x_max":0,"o":"m 499 603 l 392 754 l 564 807 l 539 885 l 367 832 l 367 1010 l 283 1010 l 283 832 l 113 885 l 88 807 l 258 754 l 153 604 l 218 554 l 325 706 l 433 554 z "},"+":{"ha":958,"x_min":0,"x_max":0,"o":"m 539 121 l 539 456 l 871 456 l 871 572 l 539 572 l 539 906 l 421 906 l 421 572 l 88 572 l 88 456 l 421 456 l 421 121 z "},",":{"ha":360,"x_min":0,"x_max":0,"o":"m 203 -164 l 272 197 l 94 197 l 94 -164 z "},"-":{"ha":411,"x_min":0,"x_max":0,"o":"m 374 454 l 374 572 l 40 572 l 40 454 z "},".":{"ha":364,"x_min":0,"x_max":0,"o":"m 276 83 b 181 178 276 136 235 178 b 88 83 128 178 88 136 b 181 -11 88 31 128 -11 b 276 83 235 -11 276 31 z "},"/":{"ha":617,"x_min":0,"x_max":0,"o":"m 135 0 l 603 1010 l 488 1010 l 13 0 z "},":":{"ha":364,"x_min":0,"x_max":0,"o":"m 276 83 b 181 178 276 136 235 178 b 88 83 128 178 88 136 b 181 -11 88 31 128 -11 b 276 83 235 -11 276 31 z m 276 539 b 181 635 276 592 235 635 b 88 539 128 635 88 592 b 181 446 88 486 128 446 b 276 539 235 446 276 486 z "},";":{"ha":364,"x_min":0,"x_max":0,"o":"m 182 446 b 276 540 238 446 276 486 b 182 635 276 596 238 635 b 89 540 129 635 89 596 b 182 446 89 486 129 446 z m 203 -164 l 272 197 l 94 197 l 94 -164 z "},"<":{"ha":958,"x_min":0,"x_max":0,"o":"m 871 139 l 871 264 l 238 514 l 871 761 l 871 888 l 135 579 b 88 514 106 567 88 540 b 135 449 88 483 106 461 z "},"=":{"ha":958,"x_min":0,"x_max":0,"o":"m 871 642 l 871 758 l 88 758 l 88 642 z m 871 267 l 871 383 l 88 383 l 88 267 z "},">":{"ha":958,"x_min":0,"x_max":0,"o":"m 824 449 b 871 514 853 461 871 483 b 824 579 871 540 853 567 l 88 888 l 88 761 l 721 514 l 88 264 l 88 139 z "},"?":{"ha":1078,"x_min":0,"x_max":0,"o":"m 731 439 b 1036 726 921 439 1036 560 b 728 1010 1036 889 928 1010 l 61 1010 l 61 833 l 728 833 b 856 710 807 833 856 786 b 728 588 856 633 806 588 l 388 588 b 156 385 231 588 156 508 l 156 325 l 322 325 l 322 381 b 388 439 322 419 346 439 z m 242 -11 b 336 85 297 -11 336 28 b 242 178 336 139 297 178 b 147 85 189 178 147 139 b 242 -11 147 28 189 -11 z "},"@":{"ha":1157,"x_min":0,"x_max":0,"o":"m 1069 0 l 1069 128 l 567 128 b 190 504 332 128 190 283 b 567 879 190 725 333 879 l 938 879 l 938 382 l 817 382 l 817 731 l 544 731 b 346 503 424 731 346 631 b 544 271 346 374 426 271 l 1069 271 l 1069 1008 l 567 1008 b 58 493 276 1008 58 788 b 567 0 58 196 272 0 z m 701 382 l 576 382 b 464 506 510 382 464 435 b 576 631 464 582 507 631 l 701 631 z "},"A":{"ha":1374,"x_min":0,"x_max":0,"o":"m 1353 0 l 771 967 b 686 1024 750 1001 725 1024 b 600 967 647 1024 621 1001 l 19 0 l 221 0 l 679 775 l 904 397 l 594 397 l 511 254 l 989 254 l 1140 0 z "},"B":{"ha":1238,"x_min":0,"x_max":0,"o":"m 846 0 b 1171 306 1043 0 1171 121 b 1013 533 1171 424 1104 504 b 1153 749 1088 557 1153 621 b 825 1010 1153 921 1022 1010 l 86 1010 l 86 0 z m 839 439 b 992 308 938 439 992 392 b 774 175 992 210 900 175 l 263 175 l 263 833 l 758 833 b 974 710 889 833 974 817 b 826 588 974 622 926 588 l 390 588 l 390 439 z "},"C":{"ha":1151,"x_min":0,"x_max":0,"o":"m 1096 0 l 1096 176 l 549 176 b 235 507 367 176 235 317 b 549 833 235 699 368 833 l 1096 833 l 1096 1010 l 549 1010 b 58 515 267 1010 58 813 b 549 0 58 222 267 0 z "},"D":{"ha":1221,"x_min":0,"x_max":0,"o":"m 672 0 b 1164 515 957 0 1164 222 b 672 1010 1164 808 957 1010 l 88 1010 l 88 0 z m 263 176 l 263 833 l 672 833 b 988 507 854 833 988 697 b 672 176 988 317 854 176 z "},"E":{"ha":1054,"x_min":0,"x_max":0,"o":"m 990 0 l 990 176 l 263 176 l 263 833 l 989 833 l 989 1010 l 88 1010 l 88 0 z m 951 439 l 951 588 l 392 588 l 392 439 z "},"F":{"ha":979,"x_min":0,"x_max":0,"o":"m 263 0 l 263 833 l 944 833 l 944 1010 l 88 1010 l 88 0 z m 903 418 l 903 572 l 392 572 l 392 418 z "},"G":{"ha":1233,"x_min":0,"x_max":0,"o":"m 1158 0 l 1158 588 l 525 588 l 525 439 l 981 439 l 981 176 l 549 176 b 235 507 367 176 235 317 b 549 833 235 699 368 833 l 1096 833 l 1096 1010 l 549 1010 b 58 515 267 1010 58 813 b 549 0 58 222 267 0 z "},"H":{"ha":1164,"x_min":0,"x_max":0,"o":"m 1076 -4 l 1076 1010 l 900 1010 l 900 592 l 392 592 l 392 435 l 900 435 l 900 -4 z m 264 -4 l 264 1010 l 88 1010 l 88 -4 z "},"I":{"ha":371,"x_min":0,"x_max":0,"o":"m 274 0 l 274 1010 l 97 1010 l 97 0 z "},"J":{"ha":983,"x_min":0,"x_max":0,"o":"m 403 0 b 911 460 754 0 911 147 l 911 1010 l 735 1010 l 735 460 b 403 176 735 264 639 176 l 33 176 l 33 0 z "},"K":{"ha":1215,"x_min":0,"x_max":0,"o":"m 1189 0 l 507 517 l 1168 1010 l 897 1010 l 363 599 b 318 518 326 571 318 549 b 354 444 318 490 324 468 l 919 0 z m 264 0 l 264 1010 l 88 1010 l 88 0 z "},"L":{"ha":982,"x_min":0,"x_max":0,"o":"m 943 0 l 943 176 l 264 176 l 264 1010 l 88 1010 l 88 0 z "},"M":{"ha":1549,"x_min":0,"x_max":0,"o":"m 1519 0 l 1261 950 b 1176 1022 1247 999 1219 1022 b 1092 963 1139 1022 1108 1001 l 781 249 l 469 963 b 381 1022 453 1001 418 1022 b 293 950 333 1022 306 999 l 33 0 l 207 0 l 400 710 l 685 53 b 775 -14 703 10 733 -14 b 865 53 818 -14 846 10 l 1151 710 l 1344 0 z "},"N":{"ha":1213,"x_min":0,"x_max":0,"o":"m 961 25 b 1042 -12 986 0 1013 -12 b 1129 93 1093 -12 1129 26 l 1129 1018 l 961 1018 l 961 279 l 249 986 b 174 1022 222 1013 200 1022 b 83 917 118 1022 83 982 l 83 0 l 251 0 l 251 739 z "},"O":{"ha":1344,"x_min":0,"x_max":0,"o":"m 794 0 b 1289 515 1082 0 1289 222 b 794 1010 1289 808 1086 1010 l 549 1010 b 58 515 267 1010 58 813 b 549 0 58 222 267 0 z m 549 176 b 235 507 367 176 235 317 b 549 833 235 699 368 833 l 794 833 b 1113 507 981 833 1113 697 b 794 176 1113 317 981 176 z "},"P":{"ha":1204,"x_min":0,"x_max":0,"o":"m 797 281 b 1167 649 1031 281 1167 431 b 797 1010 1167 869 1031 1010 l 88 1010 l 88 0 l 263 0 l 263 833 l 797 833 b 994 643 921 833 994 760 b 797 451 994 529 921 451 l 392 451 l 392 281 z "},"Q":{"ha":1344,"x_min":0,"x_max":0,"o":"m 1339 0 l 1149 147 b 1289 515 1236 239 1289 368 b 794 1010 1289 808 1086 1010 l 549 1010 b 58 515 267 1010 58 813 b 549 0 58 222 267 0 l 794 0 b 1035 60 883 0 965 22 l 1104 0 z m 882 188 b 794 176 854 181 825 176 l 549 176 b 235 507 367 176 235 317 b 549 833 235 699 368 833 l 794 833 b 1113 507 981 833 1113 697 b 1011 258 1113 406 1074 318 l 824 417 l 590 417 z "},"R":{"ha":1279,"x_min":0,"x_max":0,"o":"m 1275 0 l 971 307 b 1179 642 1101 357 1179 475 b 813 1010 1179 867 1043 1010 l 88 1010 l 88 0 l 263 0 l 263 833 l 813 833 b 1006 639 933 833 1006 769 b 813 436 1006 508 939 436 l 392 436 l 392 281 l 769 281 l 1025 0 z "},"S":{"ha":1222,"x_min":0,"x_max":0,"o":"m 844 0 b 1158 296 1056 0 1158 126 b 844 588 1158 492 1049 588 l 382 588 b 256 710 304 588 256 633 b 383 833 256 786 303 833 l 1108 833 l 1108 1010 l 383 1010 b 72 726 182 1010 72 889 b 381 439 72 560 190 439 l 844 439 b 992 308 939 439 992 394 b 844 176 992 229 939 176 l 88 176 l 88 0 z "},"T":{"ha":1000,"x_min":0,"x_max":0,"o":"m 588 0 l 588 833 l 971 833 l 971 1010 l 28 1010 l 28 833 l 411 833 l 411 0 z "},"U":{"ha":1235,"x_min":0,"x_max":0,"o":"m 990 446 b 622 160 990 243 900 160 b 254 446 344 160 254 243 l 254 1010 l 72 1010 l 72 446 b 617 -14 72 133 228 -14 b 1163 446 1008 -14 1163 133 l 1163 1010 l 990 1010 z "},"V":{"ha":1374,"x_min":0,"x_max":0,"o":"m 600 43 b 686 -14 621 8 647 -14 b 771 43 722 -14 750 8 l 1353 1010 l 1150 1010 l 693 232 l 235 1010 l 19 1010 z "},"W":{"ha":1761,"x_min":0,"x_max":0,"o":"m 1036 42 b 1126 -14 1056 4 1089 -14 b 1218 42 1164 -14 1197 4 l 1740 1010 l 1543 1010 l 1132 233 l 742 1010 l 529 1010 l 792 508 l 639 233 l 231 1010 l 19 1010 l 542 42 b 633 -14 563 4 594 -14 b 724 42 669 -14 704 4 l 881 338 z "},"X":{"ha":1389,"x_min":0,"x_max":0,"o":"m 1350 0 l 803 525 l 1306 1010 l 1076 1010 l 697 636 l 313 1010 l 69 1010 l 572 525 l 31 0 l 260 0 l 679 413 l 1103 0 z "},"Y":{"ha":1286,"x_min":0,"x_max":0,"o":"m 731 0 l 731 383 l 1268 1010 l 1043 1010 l 649 544 l 256 1010 l 18 1010 l 554 383 l 554 0 z "},"Z":{"ha":1114,"x_min":0,"x_max":0,"o":"m 1047 0 l 1047 168 l 344 168 l 1015 844 b 1051 919 1039 868 1051 893 b 951 1010 1051 979 1003 1010 l 68 1010 l 68 842 l 763 842 l 92 165 b 56 90 68 142 56 117 b 156 0 56 31 103 0 z "},"[":{"ha":463,"x_min":0,"x_max":0,"o":"m 375 -124 l 375 -11 l 253 -11 l 253 1032 l 375 1032 l 375 1147 l 138 1147 l 138 -124 z "},"\\":{"ha":618,"x_min":0,"x_max":0,"o":"m 604 0 l 131 1010 l 14 1010 l 482 0 z "},"]":{"ha":463,"x_min":0,"x_max":0,"o":"m 325 -124 l 325 1147 l 88 1147 l 88 1032 l 208 1032 l 208 -11 l 88 -11 l 88 -124 z "},"^":{"ha":776,"x_min":0,"x_max":0,"o":"m 689 417 l 456 975 b 389 1022 443 1004 417 1022 b 325 975 358 1022 338 1004 l 88 417 l 206 417 l 389 874 l 569 417 z "},"_":{"ha":928,"x_min":0,"x_max":0,"o":"m 939 -224 l 939 -142 l 0 -142 l 0 -224 z "},"`":{"ha":503,"x_min":0,"x_max":0,"o":"m 429 1072 l 429 1151 l 74 1258 l 74 1149 z "},"a":{"ha":1374,"x_min":0,"x_max":0,"o":"m 1353 0 l 771 967 b 686 1024 750 1001 725 1024 b 600 967 647 1024 621 1001 l 19 0 l 221 0 l 679 775 l 904 397 l 594 397 l 511 254 l 989 254 l 1140 0 z "},"b":{"ha":1238,"x_min":0,"x_max":0,"o":"m 846 0 b 1171 306 1043 0 1171 121 b 1013 533 1171 424 1104 504 b 1153 749 1088 557 1153 621 b 825 1010 1153 921 1022 1010 l 86 1010 l 86 0 z m 839 439 b 992 308 938 439 992 392 b 774 175 992 210 900 175 l 263 175 l 263 833 l 758 833 b 974 710 889 833 974 817 b 826 588 974 622 926 588 l 390 588 l 390 439 z "},"c":{"ha":1151,"x_min":0,"x_max":0,"o":"m 1096 0 l 1096 176 l 549 176 b 235 507 367 176 235 317 b 549 833 235 699 368 833 l 1096 833 l 1096 1010 l 549 1010 b 58 515 267 1010 58 813 b 549 0 58 222 267 0 z "},"d":{"ha":1221,"x_min":0,"x_max":0,"o":"m 672 0 b 1164 515 957 0 1164 222 b 672 1010 1164 808 957 1010 l 88 1010 l 88 0 z m 263 176 l 263 833 l 672 833 b 988 507 854 833 988 697 b 672 176 988 317 854 176 z "},"e":{"ha":1054,"x_min":0,"x_max":0,"o":"m 990 0 l 990 176 l 263 176 l 263 833 l 989 833 l 989 1010 l 88 1010 l 88 0 z m 951 439 l 951 588 l 392 588 l 392 439 z "},"f":{"ha":979,"x_min":0,"x_max":0,"o":"m 263 0 l 263 833 l 944 833 l 944 1010 l 88 1010 l 88 0 z m 903 418 l 903 572 l 392 572 l 392 418 z "},"g":{"ha":1233,"x_min":0,"x_max":0,"o":"m 1158 0 l 1158 588 l 525 588 l 525 439 l 981 439 l 981 176 l 549 176 b 235 507 367 176 235 317 b 549 833 235 699 368 833 l 1096 833 l 1096 1010 l 549 1010 b 58 515 267 1010 58 813 b 549 0 58 222 267 0 z "},"h":{"ha":1164,"x_min":0,"x_max":0,"o":"m 1076 -4 l 1076 1010 l 900 1010 l 900 592 l 392 592 l 392 435 l 900 435 l 900 -4 z m 264 -4 l 264 1010 l 88 1010 l 88 -4 z "},"i":{"ha":371,"x_min":0,"x_max":0,"o":"m 274 0 l 274 1010 l 97 1010 l 97 0 z "},"j":{"ha":983,"x_min":0,"x_max":0,"o":"m 403 0 b 911 460 754 0 911 147 l 911 1010 l 735 1010 l 735 460 b 403 176 735 264 639 176 l 33 176 l 33 0 z "},"k":{"ha":1215,"x_min":0,"x_max":0,"o":"m 1189 0 l 507 517 l 1168 1010 l 897 1010 l 363 599 b 318 518 326 571 318 549 b 354 444 318 490 324 468 l 919 0 z m 264 0 l 264 1010 l 88 1010 l 88 0 z "},"l":{"ha":982,"x_min":0,"x_max":0,"o":"m 943 0 l 943 176 l 264 176 l 264 1010 l 88 1010 l 88 0 z "},"m":{"ha":1549,"x_min":0,"x_max":0,"o":"m 1519 0 l 1261 950 b 1176 1022 1247 999 1219 1022 b 1092 963 1139 1022 1108 1001 l 781 249 l 469 963 b 381 1022 453 1001 418 1022 b 293 950 333 1022 306 999 l 33 0 l 207 0 l 400 710 l 685 53 b 775 -14 703 10 733 -14 b 865 53 818 -14 846 10 l 1151 710 l 1344 0 z "},"n":{"ha":1213,"x_min":0,"x_max":0,"o":"m 961 25 b 1042 -12 986 0 1013 -12 b 1129 93 1093 -12 1129 26 l 1129 1018 l 961 1018 l 961 279 l 249 986 b 174 1022 222 1013 200 1022 b 83 917 118 1022 83 982 l 83 0 l 251 0 l 251 739 z "},"o":{"ha":1344,"x_min":0,"x_max":0,"o":"m 794 0 b 1289 515 1082 0 1289 222 b 794 1010 1289 808 1086 1010 l 549 1010 b 58 515 267 1010 58 813 b 549 0 58 222 267 0 z m 549 176 b 235 507 367 176 235 317 b 549 833 235 699 368 833 l 794 833 b 1113 507 981 833 1113 697 b 794 176 1113 317 981 176 z "},"p":{"ha":1204,"x_min":0,"x_max":0,"o":"m 797 281 b 1167 649 1031 281 1167 431 b 797 1010 1167 869 1031 1010 l 88 1010 l 88 0 l 263 0 l 263 833 l 797 833 b 994 643 921 833 994 760 b 797 451 994 529 921 451 l 392 451 l 392 281 z "},"q":{"ha":1344,"x_min":0,"x_max":0,"o":"m 1339 0 l 1149 147 b 1289 515 1236 239 1289 368 b 794 1010 1289 808 1086 1010 l 549 1010 b 58 515 267 1010 58 813 b 549 0 58 222 267 0 l 794 0 b 1035 60 883 0 965 22 l 1104 0 z m 882 188 b 794 176 854 181 825 176 l 549 176 b 235 507 367 176 235 317 b 549 833 235 699 368 833 l 794 833 b 1113 507 981 833 1113 697 b 1011 258 1113 406 1074 318 l 824 417 l 590 417 z "},"r":{"ha":1279,"x_min":0,"x_max":0,"o":"m 1275 0 l 971 307 b 1179 642 1101 357 1179 475 b 813 1010 1179 867 1043 1010 l 88 1010 l 88 0 l 263 0 l 263 833 l 813 833 b 1006 639 933 833 1006 769 b 813 436 1006 508 939 436 l 392 436 l 392 281 l 769 281 l 1025 0 z "},"s":{"ha":1222,"x_min":0,"x_max":0,"o":"m 844 0 b 1158 296 1056 0 1158 126 b 844 588 1158 492 1049 588 l 382 588 b 256 710 304 588 256 633 b 383 833 256 786 303 833 l 1108 833 l 1108 1010 l 383 1010 b 72 726 182 1010 72 889 b 381 439 72 560 190 439 l 844 439 b 992 308 939 439 992 394 b 844 176 992 229 939 176 l 88 176 l 88 0 z "},"t":{"ha":1000,"x_min":0,"x_max":0,"o":"m 588 0 l 588 833 l 971 833 l 971 1010 l 28 1010 l 28 833 l 411 833 l 411 0 z "},"u":{"ha":1235,"x_min":0,"x_max":0,"o":"m 990 446 b 622 160 990 243 900 160 b 254 446 344 160 254 243 l 254 1010 l 72 1010 l 72 446 b 617 -14 72 133 228 -14 b 1163 446 1008 -14 1163 133 l 1163 1010 l 990 1010 z "},"v":{"ha":1374,"x_min":0,"x_max":0,"o":"m 600 43 b 686 -14 621 8 647 -14 b 771 43 722 -14 750 8 l 1353 1010 l 1150 1010 l 693 232 l 235 1010 l 19 1010 z "},"w":{"ha":1761,"x_min":0,"x_max":0,"o":"m 1036 42 b 1126 -14 1056 4 1089 -14 b 1218 42 1164 -14 1197 4 l 1740 1010 l 1543 1010 l 1132 233 l 742 1010 l 529 1010 l 792 508 l 639 233 l 231 1010 l 19 1010 l 542 42 b 633 -14 563 4 594 -14 b 724 42 669 -14 704 4 l 881 338 z "},"x":{"ha":1389,"x_min":0,"x_max":0,"o":"m 1350 0 l 803 525 l 1306 1010 l 1076 1010 l 697 636 l 313 1010 l 69 1010 l 572 525 l 31 0 l 260 0 l 679 413 l 1103 0 z "},"y":{"ha":1286,"x_min":0,"x_max":0,"o":"m 731 0 l 731 383 l 1268 1010 l 1043 1010 l 649 544 l 256 1010 l 18 1010 l 554 383 l 554 0 z "},"z":{"ha":1114,"x_min":0,"x_max":0,"o":"m 1047 0 l 1047 168 l 344 168 l 1015 844 b 1051 919 1039 868 1051 893 b 951 1010 1051 979 1003 1010 l 68 1010 l 68 842 l 763 842 l 92 165 b 56 90 68 142 56 117 b 156 0 56 31 103 0 z "},"{":{"ha":468,"x_min":0,"x_max":0,"o":"m 379 -124 l 379 -26 b 272 63 313 -26 272 -11 l 272 396 b 218 508 272 457 263 490 b 272 622 258 524 272 560 l 272 958 b 379 1050 272 1008 297 1050 l 379 1147 l 315 1147 b 157 982 219 1147 157 1086 l 157 592 b 86 557 157 569 140 558 l 86 461 b 157 425 140 460 157 449 l 157 39 b 315 -124 157 -64 219 -124 z "},"|":{"ha":413,"x_min":0,"x_max":0,"o":"m 258 -124 l 258 1147 l 154 1147 l 154 -124 z "},"}":{"ha":468,"x_min":0,"x_max":0,"o":"m 150 -124 b 308 39 246 -124 308 -64 l 308 425 b 379 461 308 449 325 460 l 379 557 b 308 592 325 558 308 569 l 308 982 b 150 1147 308 1086 246 1147 l 86 1147 l 86 1050 b 193 958 168 1050 193 1008 l 193 622 b 247 508 193 560 207 524 b 193 396 203 490 193 457 l 193 63 b 86 -26 193 -11 153 -26 l 86 -124 z "},"~":{"ha":960,"x_min":0,"x_max":0,"o":"m 872 610 b 671 528 832 569 750 528 b 289 622 535 528 424 622 b 89 549 210 622 139 597 l 89 421 b 289 504 133 468 214 504 b 671 410 425 504 538 410 b 872 481 746 410 818 431 z "}," ":{"ha":408,"x_min":0,"x_max":0,"o":""},"¡":{"ha":414,"x_min":0,"x_max":0,"o":"m 129 686 l 129 0 l 296 0 l 296 686 z m 210 1024 b 115 928 154 1024 115 985 b 210 835 115 874 154 835 b 304 928 263 835 304 874 b 210 1024 304 985 263 1024 z "},"¢":{"ha":961,"x_min":0,"x_max":0,"o":"m 892 99 l 892 243 l 631 243 l 631 768 l 892 768 l 892 911 l 631 911 l 631 1010 l 553 1010 l 553 911 l 453 911 b 58 513 224 911 58 753 b 453 99 58 276 224 99 l 553 99 l 553 0 l 631 0 l 631 99 z m 553 243 l 453 243 b 200 506 307 243 200 354 b 453 768 200 661 307 768 l 553 768 z "},"£":{"ha":985,"x_min":0,"x_max":0,"o":"m 929 0 l 929 176 l 331 176 l 331 454 l 611 454 l 611 585 l 331 585 l 331 689 b 500 833 331 789 394 833 l 781 833 l 781 1010 l 474 1010 b 164 711 263 1010 164 882 l 164 585 l 94 585 l 94 454 l 164 454 l 164 176 l 40 176 l 40 0 z "},"¥":{"ha":1093,"x_min":0,"x_max":0,"o":"m 924 103 l 924 222 l 629 222 l 629 344 l 924 344 l 924 464 l 699 464 l 1057 1010 l 850 1010 l 549 525 l 238 1010 l 26 1010 l 392 464 l 176 464 l 176 344 l 463 344 l 463 222 l 176 222 l 176 103 l 463 103 l 463 0 l 629 0 l 629 103 z "},"¦":{"ha":413,"x_min":0,"x_max":0,"o":"m 258 1147 l 154 1147 l 154 583 l 258 583 z m 258 -124 l 258 429 l 154 429 l 154 -124 z "},"§":{"ha":1074,"x_min":0,"x_max":0,"o":"m 704 -279 b 993 -8 892 -279 993 -161 b 860 214 993 94 939 176 b 943 388 914 249 943 311 b 696 601 943 517 865 601 l 354 601 b 235 721 281 601 235 650 b 385 842 235 804 301 842 l 881 842 l 881 1010 l 356 1010 b 68 743 171 1010 68 892 b 199 515 68 640 118 554 b 117 342 143 482 117 418 b 364 129 117 215 194 129 l 704 129 b 824 10 779 129 824 81 b 675 -111 824 -74 756 -111 l 178 -111 l 178 -279 z m 668 472 b 789 363 747 472 789 429 b 675 258 789 303 751 258 l 392 258 b 269 368 311 258 269 301 b 383 472 269 428 307 472 z "},"¨":{"ha":546,"x_min":0,"x_max":0,"o":"m 215 1178 b 146 1240 215 1217 185 1240 b 74 1178 104 1240 74 1217 b 146 1115 74 1139 104 1115 b 215 1178 185 1115 215 1139 z m 472 1178 b 401 1240 472 1217 442 1240 b 331 1178 361 1240 331 1217 b 401 1115 331 1139 361 1115 b 472 1178 442 1115 472 1139 z "},"©":{"ha":1151,"x_min":0,"x_max":0,"o":"m 576 -14 b 1093 506 863 -14 1093 219 b 576 1022 1093 792 863 1022 b 58 506 290 1022 58 792 b 576 -14 58 219 290 -14 z m 579 33 b 108 504 315 33 108 244 b 579 976 108 765 315 976 b 1047 504 838 976 1047 765 b 579 33 1047 244 838 33 z m 740 264 l 740 328 l 571 328 b 388 501 464 328 388 401 b 571 678 388 607 467 678 l 740 678 l 740 743 l 571 743 b 314 507 424 743 314 649 b 571 264 314 369 424 264 z "},"ª":{"ha":839,"x_min":0,"x_max":0,"o":"m 786 417 l 465 949 b 419 979 454 968 440 979 b 372 949 397 979 383 968 l 53 417 l 163 417 l 415 843 l 539 635 l 368 635 l 322 557 l 586 557 l 669 417 z "},"«":{"ha":874,"x_min":0,"x_max":0,"o":"m 453 257 l 453 339 l 150 514 l 453 688 l 453 775 l 82 553 b 58 515 67 543 58 532 b 82 481 58 500 67 490 z m 817 257 l 817 339 l 514 514 l 817 688 l 817 775 l 444 553 b 421 515 429 543 421 532 b 444 481 421 500 431 489 z "},"®":{"ha":813,"x_min":0,"x_max":0,"o":"m 725 703 b 406 1022 725 881 582 1022 b 88 703 229 1022 88 881 b 406 385 88 526 229 385 b 725 703 582 385 725 526 z m 674 703 b 406 436 674 556 553 436 b 136 703 258 436 136 556 b 406 974 136 853 258 974 b 674 703 553 974 674 853 z m 582 589 l 501 665 b 557 753 536 681 557 710 b 458 847 557 810 521 847 l 261 847 l 261 589 l 310 589 l 310 800 l 458 800 b 508 751 490 800 508 781 b 458 703 508 721 490 703 l 368 703 l 368 658 l 442 658 l 511 589 z "},"¯":{"ha":503,"x_min":0,"x_max":0,"o":"m 429 1128 l 429 1208 l 74 1208 l 74 1128 z "},"°":{"ha":501,"x_min":0,"x_max":0,"o":"m 443 831 b 249 1022 443 958 378 1022 b 58 831 122 1022 58 958 b 249 640 58 703 122 640 b 443 831 378 640 443 703 z m 364 829 b 249 719 364 757 325 719 b 135 831 174 719 135 757 b 249 943 135 908 174 943 b 364 829 325 943 364 907 z "},"±":{"ha":958,"x_min":0,"x_max":0,"o":"m 539 121 l 539 456 l 871 456 l 871 572 l 539 572 l 539 906 l 421 906 l 421 572 l 88 572 l 88 456 l 421 456 l 421 121 z m 871 -72 l 871 44 l 88 44 l 88 -72 z "},"²":{"ha":614,"x_min":0,"x_max":0,"o":"m 549 521 l 549 608 l 147 608 l 147 675 b 219 740 147 718 172 740 l 403 740 b 557 883 499 740 557 800 b 403 1025 557 965 503 1025 l 68 1025 l 68 938 l 403 938 b 467 875 442 938 467 914 b 403 814 467 838 440 814 l 219 814 b 64 668 118 814 64 767 l 64 521 z "},"³":{"ha":615,"x_min":0,"x_max":0,"o":"m 399 521 b 561 674 497 521 561 582 b 482 788 561 732 528 772 b 551 894 519 799 551 831 b 389 1025 551 981 486 1025 l 54 1025 l 54 938 l 371 938 b 463 875 429 938 463 922 b 389 814 463 832 439 814 l 172 814 l 172 740 l 394 740 b 471 675 444 740 471 717 b 376 608 471 632 432 608 l 53 608 l 53 521 z "},"´":{"ha":503,"x_min":0,"x_max":0,"o":"m 429 1149 l 429 1258 l 74 1151 l 74 1072 z "},"¶":{"ha":874,"x_min":0,"x_max":0,"o":"m 786 -140 l 786 1010 l 294 1010 b 63 782 149 1010 63 921 b 294 550 63 644 149 550 l 389 550 l 389 -140 l 500 -140 l 500 899 l 676 899 l 676 -140 z "},"·":{"ha":364,"x_min":0,"x_max":0,"o":"m 276 500 b 181 594 276 553 235 594 b 88 500 128 594 88 553 b 181 406 88 447 128 406 b 276 500 235 406 276 447 z "},"¸":{"ha":304,"x_min":0,"x_max":0,"o":"m 151 -279 l 244 -65 l 60 -65 z "},"¹":{"ha":308,"x_min":0,"x_max":0,"o":"m 244 521 l 244 860 b 86 1025 244 964 188 1025 l 38 1025 l 38 938 l 86 938 b 157 860 132 938 157 910 l 157 521 z "},"º":{"ha":822,"x_min":0,"x_max":0,"o":"m 479 417 b 750 700 636 417 750 539 b 479 972 750 861 639 972 l 343 972 b 74 700 189 972 74 864 b 343 417 74 539 189 417 z m 343 514 b 171 696 243 514 171 590 b 343 875 171 801 244 875 l 479 875 b 654 696 581 875 654 800 b 479 514 654 590 581 514 z "},"»":{"ha":874,"x_min":0,"x_max":0,"o":"m 792 481 b 817 515 807 489 817 500 b 792 553 817 532 807 543 l 421 775 l 421 688 l 724 514 l 421 339 l 421 257 z m 431 481 b 454 515 444 489 454 500 b 431 553 454 532 444 544 l 58 775 l 58 688 l 361 514 l 58 339 l 58 257 z "},"¼":{"ha":1350,"x_min":0,"x_max":0,"o":"m 381 521 l 381 860 b 222 1025 381 964 324 1025 l 174 1025 l 174 938 l 222 938 b 293 860 268 938 293 910 l 293 521 z m 179 -93 l 1089 1071 l 971 1071 l 58 -93 z m 1218 -14 l 1218 121 l 1292 121 l 1292 206 l 1218 206 l 1218 490 l 1131 490 l 1131 206 l 921 206 b 843 283 868 206 843 225 l 843 490 l 756 490 l 756 282 b 921 121 756 171 815 121 l 1131 121 l 1131 -14 z "},"½":{"ha":1317,"x_min":0,"x_max":0,"o":"m 381 521 l 381 860 b 222 1025 381 964 324 1025 l 174 1025 l 174 938 l 222 938 b 293 860 268 938 293 910 l 293 521 z m 179 -93 l 1089 1071 l 971 1071 l 58 -93 z m 1250 -14 l 1250 74 l 849 74 l 849 140 b 921 206 849 183 874 206 l 1104 206 b 1258 349 1200 206 1258 265 b 1104 490 1258 431 1204 490 l 769 490 l 769 403 l 1104 403 b 1168 340 1143 403 1168 379 b 1104 279 1168 303 1142 279 l 921 279 b 765 133 819 279 765 232 l 765 -14 z "},"¾":{"ha":1429,"x_min":0,"x_max":0,"o":"m 404 521 b 567 674 503 521 567 582 b 488 788 567 732 533 772 b 557 894 525 799 557 831 b 394 1025 557 981 492 1025 l 60 1025 l 60 938 l 376 938 b 468 875 435 938 468 922 b 394 814 468 832 444 814 l 178 814 l 178 740 l 400 740 b 476 675 450 740 476 717 b 382 608 476 632 438 608 l 58 608 l 58 521 z m 258 -93 l 1168 1071 l 1050 1071 l 138 -93 z m 1297 -14 l 1297 121 l 1371 121 l 1371 206 l 1297 206 l 1297 490 l 1210 490 l 1210 206 l 1000 206 b 922 283 947 206 922 225 l 922 490 l 835 490 l 835 282 b 1000 121 835 171 894 121 l 1210 121 l 1210 -14 z "},"¿":{"ha":1078,"x_min":0,"x_max":0,"o":"m 344 571 b 39 283 154 571 39 450 b 347 0 39 121 147 0 l 1014 0 l 1014 176 l 347 176 b 219 300 268 176 219 224 b 347 422 219 376 269 422 l 688 422 b 919 625 844 422 919 501 l 919 685 l 753 685 l 753 629 b 688 571 753 590 729 571 z m 833 1021 b 739 925 778 1021 739 982 b 833 832 739 871 778 832 b 928 925 886 832 928 871 b 833 1021 928 982 886 1021 z "},"À":{"ha":1374,"x_min":0,"x_max":0,"o":"m 1353 0 l 771 967 b 686 1024 750 1001 725 1024 b 600 967 647 1024 621 1001 l 19 0 l 221 0 l 679 775 l 904 397 l 594 397 l 511 254 l 989 254 l 1140 0 z m 822 1072 l 822 1151 l 467 1258 l 467 1149 z "},"Á":{"ha":1374,"x_min":0,"x_max":0,"o":"m 1353 0 l 771 967 b 686 1024 750 1001 725 1024 b 600 967 647 1024 621 1001 l 19 0 l 221 0 l 679 775 l 904 397 l 594 397 l 511 254 l 989 254 l 1140 0 z m 906 1149 l 906 1258 l 550 1151 l 550 1072 z "},"Â":{"ha":1374,"x_min":0,"x_max":0,"o":"m 1353 0 l 771 967 b 686 1024 750 1001 725 1024 b 600 967 647 1024 621 1001 l 19 0 l 221 0 l 679 775 l 904 397 l 594 397 l 511 254 l 989 254 l 1140 0 z m 876 1072 l 750 1258 l 624 1258 l 497 1072 l 593 1072 l 681 1207 l 692 1207 l 779 1072 z "},"Ã":{"ha":1374,"x_min":0,"x_max":0,"o":"m 1353 0 l 771 967 b 686 1024 750 1001 725 1024 b 600 967 647 1024 621 1001 l 19 0 l 221 0 l 679 775 l 904 397 l 594 397 l 511 254 l 989 254 l 1140 0 z m 864 1226 b 772 1176 846 1200 810 1176 b 599 1232 711 1176 663 1232 b 508 1190 561 1232 528 1215 l 508 1108 b 599 1157 525 1133 563 1157 b 772 1103 661 1157 711 1103 b 864 1143 810 1103 843 1117 z "},"Ä":{"ha":1374,"x_min":0,"x_max":0,"o":"m 1353 0 l 771 967 b 686 1024 750 1001 725 1024 b 600 967 647 1024 621 1001 l 19 0 l 221 0 l 679 775 l 904 397 l 594 397 l 511 254 l 989 254 l 1140 0 z m 629 1178 b 560 1240 629 1217 599 1240 b 488 1178 518 1240 488 1217 b 560 1115 488 1139 518 1115 b 629 1178 599 1115 629 1139 z m 886 1178 b 815 1240 886 1217 856 1240 b 744 1178 775 1240 744 1217 b 815 1115 744 1139 775 1115 b 886 1178 856 1115 886 1139 z "},"Å":{"ha":1374,"x_min":0,"x_max":0,"o":"m 1353 0 l 771 967 b 686 1024 750 1001 725 1024 b 600 967 647 1024 621 1001 l 19 0 l 221 0 l 679 775 l 904 397 l 594 397 l 511 254 l 989 254 l 1140 0 z m 721 1072 b 864 1215 804 1072 864 1135 b 721 1354 864 1299 804 1354 l 650 1354 b 508 1215 568 1354 508 1299 b 650 1072 508 1135 568 1072 z m 650 1124 b 561 1214 597 1124 561 1163 b 650 1301 561 1265 599 1301 l 721 1301 b 811 1214 774 1301 811 1265 b 721 1124 811 1163 774 1124 z "},"Æ":{"ha":1868,"x_min":0,"x_max":0,"o":"m 1804 0 l 1804 176 l 1133 176 l 1133 833 l 1801 833 l 1801 1010 l 660 1010 b 572 950 621 1010 594 988 l 19 0 l 218 0 l 693 833 l 958 833 l 958 392 l 586 392 l 500 246 l 958 246 l 958 0 z m 1764 439 l 1764 588 l 1263 588 l 1263 439 z "},"Ç":{"ha":1151,"x_min":0,"x_max":0,"o":"m 1096 0 l 1096 176 l 549 176 b 235 507 367 176 235 317 b 549 833 235 699 368 833 l 1096 833 l 1096 1010 l 549 1010 b 58 515 267 1010 58 813 b 549 0 58 222 267 0 z m 603 -279 l 696 -65 l 511 -65 z "},"È":{"ha":1054,"x_min":0,"x_max":0,"o":"m 990 0 l 990 176 l 263 176 l 263 833 l 989 833 l 989 1010 l 88 1010 l 88 0 z m 951 439 l 951 588 l 392 588 l 392 439 z m 663 1072 l 663 1151 l 307 1258 l 307 1149 z "},"É":{"ha":1054,"x_min":0,"x_max":0,"o":"m 990 0 l 990 176 l 263 176 l 263 833 l 989 833 l 989 1010 l 88 1010 l 88 0 z m 951 439 l 951 588 l 392 588 l 392 439 z m 746 1149 l 746 1258 l 390 1151 l 390 1072 z "},"Ê":{"ha":1054,"x_min":0,"x_max":0,"o":"m 990 0 l 990 176 l 263 176 l 263 833 l 989 833 l 989 1010 l 88 1010 l 88 0 z m 951 439 l 951 588 l 392 588 l 392 439 z m 717 1072 l 590 1258 l 464 1258 l 338 1072 l 433 1072 l 521 1207 l 532 1207 l 619 1072 z "},"Ë":{"ha":1054,"x_min":0,"x_max":0,"o":"m 990 0 l 990 176 l 263 176 l 263 833 l 989 833 l 989 1010 l 88 1010 l 88 0 z m 951 439 l 951 588 l 392 588 l 392 439 z m 469 1178 b 400 1240 469 1217 439 1240 b 328 1178 358 1240 328 1217 b 400 1115 328 1139 358 1115 b 469 1178 439 1115 469 1139 z m 726 1178 b 656 1240 726 1217 696 1240 b 585 1178 615 1240 585 1217 b 656 1115 585 1139 615 1115 b 726 1178 696 1115 726 1139 z "},"Ì":{"ha":371,"x_min":0,"x_max":0,"o":"m 274 0 l 274 1010 l 97 1010 l 97 0 z m 322 1072 l 322 1151 l -33 1258 l -33 1149 z "},"Í":{"ha":371,"x_min":0,"x_max":0,"o":"m 274 0 l 274 1010 l 97 1010 l 97 0 z m 406 1149 l 406 1258 l 50 1151 l 50 1072 z "},"Î":{"ha":371,"x_min":0,"x_max":0,"o":"m 274 0 l 274 1010 l 97 1010 l 97 0 z m 375 1072 l 249 1258 l 122 1258 l -4 1072 l 92 1072 l 179 1207 l 190 1207 l 278 1072 z "},"Ï":{"ha":371,"x_min":0,"x_max":0,"o":"m 274 0 l 274 1010 l 97 1010 l 97 0 z m 128 1178 b 58 1240 128 1217 97 1240 b -14 1178 17 1240 -14 1217 b 58 1115 -14 1139 17 1115 b 128 1178 97 1115 128 1139 z m 385 1178 b 314 1240 385 1217 354 1240 b 243 1178 274 1240 243 1217 b 314 1115 243 1139 274 1115 b 385 1178 354 1115 385 1139 z "},"Ð":{"ha":1218,"x_min":0,"x_max":0,"o":"m 669 0 b 1163 515 956 0 1163 222 b 669 1010 1163 808 956 1010 l 85 1010 l 85 588 l 14 588 l 14 439 l 85 439 l 85 0 z m 657 439 l 657 588 l 260 588 l 260 833 l 669 833 b 985 507 851 833 985 697 b 669 176 985 317 851 176 l 260 176 l 260 439 z "},"Ñ":{"ha":1213,"x_min":0,"x_max":0,"o":"m 961 25 b 1042 -12 986 0 1013 -12 b 1129 93 1093 -12 1129 26 l 1129 1018 l 961 1018 l 961 279 l 249 986 b 174 1022 222 1013 200 1022 b 83 917 118 1022 83 982 l 83 0 l 251 0 l 251 739 z m 783 1226 b 692 1176 765 1200 729 1176 b 518 1232 631 1176 582 1232 b 428 1190 481 1232 447 1215 l 428 1108 b 518 1157 444 1133 482 1157 b 692 1103 581 1157 631 1103 b 783 1143 729 1103 763 1117 z "},"Ò":{"ha":1344,"x_min":0,"x_max":0,"o":"m 794 0 b 1289 515 1082 0 1289 222 b 794 1010 1289 808 1086 1010 l 549 1010 b 58 515 267 1010 58 813 b 549 0 58 222 267 0 z m 549 176 b 235 507 367 176 235 317 b 549 833 235 699 368 833 l 794 833 b 1113 507 981 833 1113 697 b 794 176 1113 317 981 176 z m 808 1072 l 808 1151 l 453 1258 l 453 1149 z "},"Ó":{"ha":1344,"x_min":0,"x_max":0,"o":"m 794 0 b 1289 515 1082 0 1289 222 b 794 1010 1289 808 1086 1010 l 549 1010 b 58 515 267 1010 58 813 b 549 0 58 222 267 0 z m 549 176 b 235 507 367 176 235 317 b 549 833 235 699 368 833 l 794 833 b 1113 507 981 833 1113 697 b 794 176 1113 317 981 176 z m 892 1149 l 892 1258 l 536 1151 l 536 1072 z "},"Ô":{"ha":1344,"x_min":0,"x_max":0,"o":"m 794 0 b 1289 515 1082 0 1289 222 b 794 1010 1289 808 1086 1010 l 549 1010 b 58 515 267 1010 58 813 b 549 0 58 222 267 0 z m 549 176 b 235 507 367 176 235 317 b 549 833 235 699 368 833 l 794 833 b 1113 507 981 833 1113 697 b 794 176 1113 317 981 176 z m 861 1072 l 735 1258 l 608 1258 l 482 1072 l 578 1072 l 665 1207 l 676 1207 l 764 1072 z "},"Õ":{"ha":1344,"x_min":0,"x_max":0,"o":"m 794 0 b 1289 515 1082 0 1289 222 b 794 1010 1289 808 1086 1010 l 549 1010 b 58 515 267 1010 58 813 b 549 0 58 222 267 0 z m 549 176 b 235 507 367 176 235 317 b 549 833 235 699 368 833 l 794 833 b 1113 507 981 833 1113 697 b 794 176 1113 317 981 176 z m 850 1226 b 758 1176 832 1200 796 1176 b 585 1232 697 1176 649 1232 b 494 1190 547 1232 514 1215 l 494 1108 b 585 1157 511 1133 549 1157 b 758 1103 647 1157 697 1103 b 850 1143 796 1103 829 1117 z "},"Ö":{"ha":1344,"x_min":0,"x_max":0,"o":"m 794 0 b 1289 515 1082 0 1289 222 b 794 1010 1289 808 1086 1010 l 549 1010 b 58 515 267 1010 58 813 b 549 0 58 222 267 0 z m 549 176 b 235 507 367 176 235 317 b 549 833 235 699 368 833 l 794 833 b 1113 507 981 833 1113 697 b 794 176 1113 317 981 176 z m 614 1178 b 544 1240 614 1217 583 1240 b 472 1178 503 1240 472 1217 b 544 1115 472 1139 503 1115 b 614 1178 583 1115 614 1139 z m 871 1178 b 800 1240 871 1217 840 1240 b 729 1178 760 1240 729 1217 b 800 1115 729 1139 760 1115 b 871 1178 840 1115 871 1139 z "},"×":{"ha":958,"x_min":0,"x_max":0,"o":"m 799 278 l 561 514 l 796 749 l 714 832 l 479 597 l 243 833 l 160 749 l 396 514 l 160 278 l 243 196 l 478 431 l 715 194 z "},"Ø":{"ha":1344,"x_min":0,"x_max":0,"o":"m 794 0 b 1289 515 1082 0 1289 222 b 1085 926 1289 694 1213 840 l 1175 1032 l 1122 1078 l 1024 961 b 794 1010 957 992 879 1010 l 549 1010 b 58 515 267 1010 58 813 b 276 81 58 328 143 171 l 189 -24 l 242 -69 l 339 46 b 549 0 401 17 472 0 z m 392 217 b 235 507 296 271 235 376 b 549 833 235 699 368 833 l 794 833 b 901 817 832 833 868 826 z m 549 176 b 460 188 517 176 488 181 l 967 786 b 1113 507 1057 731 1113 631 b 794 176 1113 317 981 176 z "},"Ù":{"ha":1235,"x_min":0,"x_max":0,"o":"m 990 446 b 622 160 990 243 900 160 b 254 446 344 160 254 243 l 254 1010 l 72 1010 l 72 446 b 617 -14 72 133 228 -14 b 1163 446 1008 -14 1163 133 l 1163 1010 l 990 1010 z m 753 1072 l 753 1151 l 397 1258 l 397 1149 z "},"Ú":{"ha":1235,"x_min":0,"x_max":0,"o":"m 990 446 b 622 160 990 243 900 160 b 254 446 344 160 254 243 l 254 1010 l 72 1010 l 72 446 b 617 -14 72 133 228 -14 b 1163 446 1008 -14 1163 133 l 1163 1010 l 990 1010 z m 836 1149 l 836 1258 l 481 1151 l 481 1072 z "},"Û":{"ha":1235,"x_min":0,"x_max":0,"o":"m 990 446 b 622 160 990 243 900 160 b 254 446 344 160 254 243 l 254 1010 l 72 1010 l 72 446 b 617 -14 72 133 228 -14 b 1163 446 1008 -14 1163 133 l 1163 1010 l 990 1010 z m 807 1072 l 681 1258 l 554 1258 l 428 1072 l 524 1072 l 611 1207 l 622 1207 l 710 1072 z "},"Ü":{"ha":1235,"x_min":0,"x_max":0,"o":"m 990 446 b 622 160 990 243 900 160 b 254 446 344 160 254 243 l 254 1010 l 72 1010 l 72 446 b 617 -14 72 133 228 -14 b 1163 446 1008 -14 1163 133 l 1163 1010 l 990 1010 z m 560 1178 b 490 1240 560 1217 529 1240 b 418 1178 449 1240 418 1217 b 490 1115 418 1139 449 1115 b 560 1178 529 1115 560 1139 z m 817 1178 b 746 1240 817 1217 786 1240 b 675 1178 706 1240 675 1217 b 746 1115 675 1139 706 1115 b 817 1178 786 1115 817 1139 z "},"Ý":{"ha":1286,"x_min":0,"x_max":0,"o":"m 731 0 l 731 383 l 1268 1010 l 1043 1010 l 649 544 l 256 1010 l 18 1010 l 554 383 l 554 0 z m 868 1149 l 868 1258 l 513 1151 l 513 1072 z "},"Þ":{"ha":1171,"x_min":0,"x_max":0,"o":"m 756 126 b 1131 503 990 126 1131 278 b 756 869 1131 726 990 869 l 263 869 l 263 1010 l 88 1010 l 88 0 l 263 0 l 263 693 l 756 693 b 957 497 882 693 957 618 b 756 296 957 376 882 296 l 392 296 l 392 126 z "},"ß":{"ha":2444,"x_min":0,"x_max":0,"o":"m 844 0 b 1158 296 1056 0 1158 126 b 844 588 1158 492 1049 588 l 382 588 b 256 710 304 588 256 633 b 383 833 256 786 303 833 l 1108 833 l 1108 1010 l 383 1010 b 72 726 182 1010 72 889 b 381 439 72 560 190 439 l 844 439 b 992 308 939 439 992 394 b 844 176 992 229 939 176 l 88 176 l 88 0 z m 2067 0 b 2381 296 2278 0 2381 126 b 2067 588 2381 492 2271 588 l 1604 588 b 1478 710 1526 588 1478 633 b 1606 833 1478 786 1525 833 l 2331 833 l 2331 1010 l 1606 1010 b 1294 726 1404 1010 1294 889 b 1603 439 1294 560 1413 439 l 2067 439 b 2214 308 2161 439 2214 394 b 2067 176 2214 229 2161 176 l 1310 176 l 1310 0 z "},"à":{"ha":1374,"x_min":0,"x_max":0,"o":"m 1353 0 l 771 967 b 686 1024 750 1001 725 1024 b 600 967 647 1024 621 1001 l 19 0 l 221 0 l 679 775 l 904 397 l 594 397 l 511 254 l 989 254 l 1140 0 z m 822 1072 l 822 1151 l 467 1258 l 467 1149 z "},"á":{"ha":1374,"x_min":0,"x_max":0,"o":"m 1353 0 l 771 967 b 686 1024 750 1001 725 1024 b 600 967 647 1024 621 1001 l 19 0 l 221 0 l 679 775 l 904 397 l 594 397 l 511 254 l 989 254 l 1140 0 z m 906 1149 l 906 1258 l 550 1151 l 550 1072 z "},"â":{"ha":1374,"x_min":0,"x_max":0,"o":"m 1353 0 l 771 967 b 686 1024 750 1001 725 1024 b 600 967 647 1024 621 1001 l 19 0 l 221 0 l 679 775 l 904 397 l 594 397 l 511 254 l 989 254 l 1140 0 z m 876 1072 l 750 1258 l 624 1258 l 497 1072 l 593 1072 l 681 1207 l 692 1207 l 779 1072 z "},"ã":{"ha":1374,"x_min":0,"x_max":0,"o":"m 1353 0 l 771 967 b 686 1024 750 1001 725 1024 b 600 967 647 1024 621 1001 l 19 0 l 221 0 l 679 775 l 904 397 l 594 397 l 511 254 l 989 254 l 1140 0 z m 864 1226 b 772 1176 846 1200 810 1176 b 599 1232 711 1176 663 1232 b 508 1190 561 1232 528 1215 l 508 1108 b 599 1157 525 1133 563 1157 b 772 1103 661 1157 711 1103 b 864 1143 810 1103 843 1117 z "},"ä":{"ha":1374,"x_min":0,"x_max":0,"o":"m 1353 0 l 771 967 b 686 1024 750 1001 725 1024 b 600 967 647 1024 621 1001 l 19 0 l 221 0 l 679 775 l 904 397 l 594 397 l 511 254 l 989 254 l 1140 0 z m 629 1178 b 560 1240 629 1217 599 1240 b 488 1178 518 1240 488 1217 b 560 1115 488 1139 518 1115 b 629 1178 599 1115 629 1139 z m 886 1178 b 815 1240 886 1217 856 1240 b 744 1178 775 1240 744 1217 b 815 1115 744 1139 775 1115 b 886 1178 856 1115 886 1139 z "},"å":{"ha":1374,"x_min":0,"x_max":0,"o":"m 1353 0 l 771 967 b 686 1024 750 1001 725 1024 b 600 967 647 1024 621 1001 l 19 0 l 221 0 l 679 775 l 904 397 l 594 397 l 511 254 l 989 254 l 1140 0 z m 721 1072 b 864 1215 804 1072 864 1135 b 721 1354 864 1299 804 1354 l 650 1354 b 508 1215 568 1354 508 1299 b 650 1072 508 1135 568 1072 z m 650 1124 b 561 1214 597 1124 561 1163 b 650 1301 561 1265 599 1301 l 721 1301 b 811 1214 774 1301 811 1265 b 721 1124 811 1163 774 1124 z "},"æ":{"ha":1868,"x_min":0,"x_max":0,"o":"m 1804 0 l 1804 176 l 1133 176 l 1133 833 l 1801 833 l 1801 1010 l 660 1010 b 572 950 621 1010 594 988 l 19 0 l 218 0 l 693 833 l 958 833 l 958 392 l 586 392 l 500 246 l 958 246 l 958 0 z m 1764 439 l 1764 588 l 1263 588 l 1263 439 z "},"ç":{"ha":1151,"x_min":0,"x_max":0,"o":"m 1096 0 l 1096 176 l 549 176 b 235 507 367 176 235 317 b 549 833 235 699 368 833 l 1096 833 l 1096 1010 l 549 1010 b 58 515 267 1010 58 813 b 549 0 58 222 267 0 z m 603 -279 l 696 -65 l 511 -65 z "},"è":{"ha":1054,"x_min":0,"x_max":0,"o":"m 990 0 l 990 176 l 263 176 l 263 833 l 989 833 l 989 1010 l 88 1010 l 88 0 z m 951 439 l 951 588 l 392 588 l 392 439 z m 663 1072 l 663 1151 l 307 1258 l 307 1149 z "},"é":{"ha":1054,"x_min":0,"x_max":0,"o":"m 990 0 l 990 176 l 263 176 l 263 833 l 989 833 l 989 1010 l 88 1010 l 88 0 z m 951 439 l 951 588 l 392 588 l 392 439 z m 746 1149 l 746 1258 l 390 1151 l 390 1072 z "},"ê":{"ha":1054,"x_min":0,"x_max":0,"o":"m 990 0 l 990 176 l 263 176 l 263 833 l 989 833 l 989 1010 l 88 1010 l 88 0 z m 951 439 l 951 588 l 392 588 l 392 439 z m 717 1072 l 590 1258 l 464 1258 l 338 1072 l 433 1072 l 521 1207 l 532 1207 l 619 1072 z "},"ë":{"ha":1054,"x_min":0,"x_max":0,"o":"m 990 0 l 990 176 l 263 176 l 263 833 l 989 833 l 989 1010 l 88 1010 l 88 0 z m 951 439 l 951 588 l 392 588 l 392 439 z m 469 1178 b 400 1240 469 1217 439 1240 b 328 1178 358 1240 328 1217 b 400 1115 328 1139 358 1115 b 469 1178 439 1115 469 1139 z m 726 1178 b 656 1240 726 1217 696 1240 b 585 1178 615 1240 585 1217 b 656 1115 585 1139 615 1115 b 726 1178 696 1115 726 1139 z "},"ì":{"ha":371,"x_min":0,"x_max":0,"o":"m 274 0 l 274 1010 l 97 1010 l 97 0 z m 322 1072 l 322 1151 l -33 1258 l -33 1149 z "},"í":{"ha":371,"x_min":0,"x_max":0,"o":"m 274 0 l 274 1010 l 97 1010 l 97 0 z m 406 1149 l 406 1258 l 50 1151 l 50 1072 z "},"î":{"ha":371,"x_min":0,"x_max":0,"o":"m 274 0 l 274 1010 l 97 1010 l 97 0 z m 375 1072 l 249 1258 l 122 1258 l -4 1072 l 92 1072 l 179 1207 l 190 1207 l 278 1072 z "},"ï":{"ha":371,"x_min":0,"x_max":0,"o":"m 274 0 l 274 1010 l 97 1010 l 97 0 z m 128 1178 b 58 1240 128 1217 97 1240 b -14 1178 17 1240 -14 1217 b 58 1115 -14 1139 17 1115 b 128 1178 97 1115 128 1139 z m 385 1178 b 314 1240 385 1217 354 1240 b 243 1178 274 1240 243 1217 b 314 1115 243 1139 274 1115 b 385 1178 354 1115 385 1139 z "},"ð":{"ha":1218,"x_min":0,"x_max":0,"o":"m 669 0 b 1163 515 956 0 1163 222 b 669 1010 1163 808 956 1010 l 85 1010 l 85 588 l 14 588 l 14 439 l 85 439 l 85 0 z m 657 439 l 657 588 l 260 588 l 260 833 l 669 833 b 985 507 851 833 985 697 b 669 176 985 317 851 176 l 260 176 l 260 439 z "},"ñ":{"ha":1213,"x_min":0,"x_max":0,"o":"m 961 25 b 1042 -12 986 0 1013 -12 b 1129 93 1093 -12 1129 26 l 1129 1018 l 961 1018 l 961 279 l 249 986 b 174 1022 222 1013 200 1022 b 83 917 118 1022 83 982 l 83 0 l 251 0 l 251 739 z m 783 1226 b 692 1176 765 1200 729 1176 b 518 1232 631 1176 582 1232 b 428 1190 481 1232 447 1215 l 428 1108 b 518 1157 444 1133 482 1157 b 692 1103 581 1157 631 1103 b 783 1143 729 1103 763 1117 z "},"ò":{"ha":1344,"x_min":0,"x_max":0,"o":"m 794 0 b 1289 515 1082 0 1289 222 b 794 1010 1289 808 1086 1010 l 549 1010 b 58 515 267 1010 58 813 b 549 0 58 222 267 0 z m 549 176 b 235 507 367 176 235 317 b 549 833 235 699 368 833 l 794 833 b 1113 507 981 833 1113 697 b 794 176 1113 317 981 176 z m 808 1072 l 808 1151 l 453 1258 l 453 1149 z "},"ó":{"ha":1344,"x_min":0,"x_max":0,"o":"m 794 0 b 1289 515 1082 0 1289 222 b 794 1010 1289 808 1086 1010 l 549 1010 b 58 515 267 1010 58 813 b 549 0 58 222 267 0 z m 549 176 b 235 507 367 176 235 317 b 549 833 235 699 368 833 l 794 833 b 1113 507 981 833 1113 697 b 794 176 1113 317 981 176 z m 892 1149 l 892 1258 l 536 1151 l 536 1072 z "},"ô":{"ha":1344,"x_min":0,"x_max":0,"o":"m 794 0 b 1289 515 1082 0 1289 222 b 794 1010 1289 808 1086 1010 l 549 1010 b 58 515 267 1010 58 813 b 549 0 58 222 267 0 z m 549 176 b 235 507 367 176 235 317 b 549 833 235 699 368 833 l 794 833 b 1113 507 981 833 1113 697 b 794 176 1113 317 981 176 z m 861 1072 l 735 1258 l 608 1258 l 482 1072 l 578 1072 l 665 1207 l 676 1207 l 764 1072 z "},"õ":{"ha":1344,"x_min":0,"x_max":0,"o":"m 794 0 b 1289 515 1082 0 1289 222 b 794 1010 1289 808 1086 1010 l 549 1010 b 58 515 267 1010 58 813 b 549 0 58 222 267 0 z m 549 176 b 235 507 367 176 235 317 b 549 833 235 699 368 833 l 794 833 b 1113 507 981 833 1113 697 b 794 176 1113 317 981 176 z m 850 1226 b 758 1176 832 1200 796 1176 b 585 1232 697 1176 649 1232 b 494 1190 547 1232 514 1215 l 494 1108 b 585 1157 511 1133 549 1157 b 758 1103 647 1157 697 1103 b 850 1143 796 1103 829 1117 z "},"ö":{"ha":1344,"x_min":0,"x_max":0,"o":"m 794 0 b 1289 515 1082 0 1289 222 b 794 1010 1289 808 1086 1010 l 549 1010 b 58 515 267 1010 58 813 b 549 0 58 222 267 0 z m 549 176 b 235 507 367 176 235 317 b 549 833 235 699 368 833 l 794 833 b 1113 507 981 833 1113 697 b 794 176 1113 317 981 176 z m 614 1178 b 544 1240 614 1217 583 1240 b 472 1178 503 1240 472 1217 b 544 1115 472 1139 503 1115 b 614 1178 583 1115 614 1139 z m 871 1178 b 800 1240 871 1217 840 1240 b 729 1178 760 1240 729 1217 b 800 1115 729 1139 760 1115 b 871 1178 840 1115 871 1139 z "},"÷":{"ha":958,"x_min":0,"x_max":0,"o":"m 871 456 l 871 572 l 88 572 l 88 456 z m 574 875 b 478 969 574 928 532 969 b 385 875 425 969 385 928 b 478 781 385 822 425 781 b 574 875 532 781 574 822 z m 574 139 b 478 233 574 192 532 233 b 385 139 425 233 385 192 b 478 44 385 86 425 44 b 574 139 532 44 574 86 z "},"ø":{"ha":1344,"x_min":0,"x_max":0,"o":"m 794 0 b 1289 515 1082 0 1289 222 b 1085 926 1289 694 1213 840 l 1175 1032 l 1122 1078 l 1024 961 b 794 1010 957 992 879 1010 l 549 1010 b 58 515 267 1010 58 813 b 276 81 58 328 143 171 l 189 -24 l 242 -69 l 339 46 b 549 0 401 17 472 0 z m 392 217 b 235 507 296 271 235 376 b 549 833 235 699 368 833 l 794 833 b 901 817 832 833 868 826 z m 549 176 b 460 188 517 176 488 181 l 967 786 b 1113 507 1057 731 1113 631 b 794 176 1113 317 981 176 z "},"ù":{"ha":1235,"x_min":0,"x_max":0,"o":"m 990 446 b 622 160 990 243 900 160 b 254 446 344 160 254 243 l 254 1010 l 72 1010 l 72 446 b 617 -14 72 133 228 -14 b 1163 446 1008 -14 1163 133 l 1163 1010 l 990 1010 z m 753 1072 l 753 1151 l 397 1258 l 397 1149 z "},"ú":{"ha":1235,"x_min":0,"x_max":0,"o":"m 990 446 b 622 160 990 243 900 160 b 254 446 344 160 254 243 l 254 1010 l 72 1010 l 72 446 b 617 -14 72 133 228 -14 b 1163 446 1008 -14 1163 133 l 1163 1010 l 990 1010 z m 836 1149 l 836 1258 l 481 1151 l 481 1072 z "},"û":{"ha":1235,"x_min":0,"x_max":0,"o":"m 990 446 b 622 160 990 243 900 160 b 254 446 344 160 254 243 l 254 1010 l 72 1010 l 72 446 b 617 -14 72 133 228 -14 b 1163 446 1008 -14 1163 133 l 1163 1010 l 990 1010 z m 807 1072 l 681 1258 l 554 1258 l 428 1072 l 524 1072 l 611 1207 l 622 1207 l 710 1072 z "},"ü":{"ha":1235,"x_min":0,"x_max":0,"o":"m 990 446 b 622 160 990 243 900 160 b 254 446 344 160 254 243 l 254 1010 l 72 1010 l 72 446 b 617 -14 72 133 228 -14 b 1163 446 1008 -14 1163 133 l 1163 1010 l 990 1010 z m 560 1178 b 490 1240 560 1217 529 1240 b 418 1178 449 1240 418 1217 b 490 1115 418 1139 449 1115 b 560 1178 529 1115 560 1139 z m 817 1178 b 746 1240 817 1217 786 1240 b 675 1178 706 1240 675 1217 b 746 1115 675 1139 706 1115 b 817 1178 786 1115 817 1139 z "},"ý":{"ha":1286,"x_min":0,"x_max":0,"o":"m 731 0 l 731 383 l 1268 1010 l 1043 1010 l 649 544 l 256 1010 l 18 1010 l 554 383 l 554 0 z m 868 1149 l 868 1258 l 513 1151 l 513 1072 z "},"þ":{"ha":1171,"x_min":0,"x_max":0,"o":"m 756 126 b 1131 503 990 126 1131 278 b 756 869 1131 726 990 869 l 263 869 l 263 1010 l 88 1010 l 88 0 l 263 0 l 263 693 l 756 693 b 957 497 882 693 957 618 b 756 296 957 376 882 296 l 392 296 l 392 126 z "},"ÿ":{"ha":1286,"x_min":0,"x_max":0,"o":"m 731 0 l 731 383 l 1268 1010 l 1043 1010 l 649 544 l 256 1010 l 18 1010 l 554 383 l 554 0 z m 590 1178 b 521 1240 590 1217 560 1240 b 449 1178 479 1240 449 1217 b 521 1115 449 1139 479 1115 b 590 1178 560 1115 590 1139 z m 847 1178 b 776 1240 847 1217 817 1240 b 706 1178 736 1240 706 1217 b 776 1115 706 1139 736 1115 b 847 1178 817 1115 847 1139 z "},"Ā":{"ha":1374,"x_min":0,"x_max":0,"o":"m 1353 0 l 771 967 b 686 1024 750 1001 725 1024 b 600 967 647 1024 621 1001 l 19 0 l 221 0 l 679 775 l 904 397 l 594 397 l 511 254 l 989 254 l 1140 0 z m 864 1128 l 864 1208 l 508 1208 l 508 1128 z "},"ā":{"ha":1374,"x_min":0,"x_max":0,"o":"m 1353 0 l 771 967 b 686 1024 750 1001 725 1024 b 600 967 647 1024 621 1001 l 19 0 l 221 0 l 679 775 l 904 397 l 594 397 l 511 254 l 989 254 l 1140 0 z m 864 1128 l 864 1208 l 508 1208 l 508 1128 z "},"Ă":{"ha":1374,"x_min":0,"x_max":0,"o":"m 1353 0 l 771 967 b 686 1024 750 1001 725 1024 b 600 967 647 1024 621 1001 l 19 0 l 221 0 l 679 775 l 904 397 l 594 397 l 511 254 l 989 254 l 1140 0 z m 725 1072 b 878 1258 839 1072 878 1194 l 782 1258 b 706 1132 781 1211 767 1132 l 672 1132 b 589 1258 611 1132 590 1211 l 494 1258 b 649 1072 494 1194 535 1072 z "},"ă":{"ha":1374,"x_min":0,"x_max":0,"o":"m 1353 0 l 771 967 b 686 1024 750 1001 725 1024 b 600 967 647 1024 621 1001 l 19 0 l 221 0 l 679 775 l 904 397 l 594 397 l 511 254 l 989 254 l 1140 0 z m 725 1072 b 878 1258 839 1072 878 1194 l 782 1258 b 706 1132 781 1211 767 1132 l 672 1132 b 589 1258 611 1132 590 1211 l 494 1258 b 649 1072 494 1194 535 1072 z "},"Ą":{"ha":1374,"x_min":0,"x_max":0,"o":"m 1353 -279 l 1353 -164 l 1239 -164 b 1194 -129 1211 -164 1194 -150 b 1226 -85 1194 -111 1207 -99 l 1353 0 l 771 967 b 686 1024 750 1001 725 1024 b 600 967 647 1024 621 1001 l 19 0 l 221 0 l 679 775 l 904 397 l 594 397 l 511 254 l 989 254 l 1140 0 l 1271 0 l 1146 -82 b 1090 -176 1114 -103 1090 -135 b 1235 -279 1090 -239 1139 -279 z "},"ą":{"ha":1374,"x_min":0,"x_max":0,"o":"m 1353 -279 l 1353 -164 l 1239 -164 b 1194 -129 1211 -164 1194 -150 b 1226 -85 1194 -111 1207 -99 l 1353 0 l 771 967 b 686 1024 750 1001 725 1024 b 600 967 647 1024 621 1001 l 19 0 l 221 0 l 679 775 l 904 397 l 594 397 l 511 254 l 989 254 l 1140 0 l 1271 0 l 1146 -82 b 1090 -176 1114 -103 1090 -135 b 1235 -279 1090 -239 1139 -279 z "},"Ć":{"ha":1151,"x_min":0,"x_max":0,"o":"m 1096 0 l 1096 176 l 549 176 b 235 507 367 176 235 317 b 549 833 235 699 368 833 l 1096 833 l 1096 1010 l 549 1010 b 58 515 267 1010 58 813 b 549 0 58 222 267 0 z m 864 1149 l 864 1258 l 508 1151 l 508 1072 z "},"ć":{"ha":1151,"x_min":0,"x_max":0,"o":"m 1096 0 l 1096 176 l 549 176 b 235 507 367 176 235 317 b 549 833 235 699 368 833 l 1096 833 l 1096 1010 l 549 1010 b 58 515 267 1010 58 813 b 549 0 58 222 267 0 z m 864 1149 l 864 1258 l 508 1151 l 508 1072 z "},"Ċ":{"ha":1151,"x_min":0,"x_max":0,"o":"m 1096 0 l 1096 176 l 549 176 b 235 507 367 176 235 317 b 549 833 235 699 368 833 l 1096 833 l 1096 1010 l 549 1010 b 58 515 267 1010 58 813 b 549 0 58 222 267 0 z m 729 1178 b 658 1240 729 1217 699 1240 b 588 1178 618 1240 588 1217 b 658 1115 588 1139 618 1115 b 729 1178 699 1115 729 1139 z "},"ċ":{"ha":1151,"x_min":0,"x_max":0,"o":"m 1096 0 l 1096 176 l 549 176 b 235 507 367 176 235 317 b 549 833 235 699 368 833 l 1096 833 l 1096 1010 l 549 1010 b 58 515 267 1010 58 813 b 549 0 58 222 267 0 z m 729 1178 b 658 1240 729 1217 699 1240 b 588 1178 618 1240 588 1217 b 658 1115 588 1139 618 1115 b 729 1178 699 1115 729 1139 z "},"Č":{"ha":1151,"x_min":0,"x_max":0,"o":"m 1096 0 l 1096 176 l 549 176 b 235 507 367 176 235 317 b 549 833 235 699 368 833 l 1096 833 l 1096 1010 l 549 1010 b 58 515 267 1010 58 813 b 549 0 58 222 267 0 z m 707 1072 l 835 1258 l 738 1258 l 650 1121 l 639 1121 l 551 1258 l 456 1258 l 581 1072 z "},"č":{"ha":1151,"x_min":0,"x_max":0,"o":"m 1096 0 l 1096 176 l 549 176 b 235 507 367 176 235 317 b 549 833 235 699 368 833 l 1096 833 l 1096 1010 l 549 1010 b 58 515 267 1010 58 813 b 549 0 58 222 267 0 z m 707 1072 l 835 1258 l 738 1258 l 650 1121 l 639 1121 l 551 1258 l 456 1258 l 581 1072 z "},"Ď":{"ha":1221,"x_min":0,"x_max":0,"o":"m 672 0 b 1164 515 957 0 1164 222 b 672 1010 1164 808 957 1010 l 88 1010 l 88 0 z m 263 176 l 263 833 l 672 833 b 988 507 854 833 988 697 b 672 176 988 317 854 176 z m 617 1072 l 744 1258 l 647 1258 l 560 1121 l 549 1121 l 461 1258 l 365 1258 l 490 1072 z "},"ď":{"ha":1221,"x_min":0,"x_max":0,"o":"m 672 0 b 1164 515 957 0 1164 222 b 672 1010 1164 808 957 1010 l 88 1010 l 88 0 z m 263 176 l 263 833 l 672 833 b 988 507 854 833 988 697 b 672 176 988 317 854 176 z m 617 1072 l 744 1258 l 647 1258 l 560 1121 l 549 1121 l 461 1258 l 365 1258 l 490 1072 z "},"Đ":{"ha":1218,"x_min":0,"x_max":0,"o":"m 669 0 b 1163 515 956 0 1163 222 b 669 1010 1163 808 956 1010 l 85 1010 l 85 588 l 14 588 l 14 439 l 85 439 l 85 0 z m 657 439 l 657 588 l 260 588 l 260 833 l 669 833 b 985 507 851 833 985 697 b 669 176 985 317 851 176 l 260 176 l 260 439 z "},"đ":{"ha":1218,"x_min":0,"x_max":0,"o":"m 669 0 b 1163 515 956 0 1163 222 b 669 1010 1163 808 956 1010 l 85 1010 l 85 588 l 14 588 l 14 439 l 85 439 l 85 0 z m 657 439 l 657 588 l 260 588 l 260 833 l 669 833 b 985 507 851 833 985 697 b 669 176 985 317 851 176 l 260 176 l 260 439 z "},"Ē":{"ha":1054,"x_min":0,"x_max":0,"o":"m 990 0 l 990 176 l 263 176 l 263 833 l 989 833 l 989 1010 l 88 1010 l 88 0 z m 951 439 l 951 588 l 392 588 l 392 439 z m 704 1128 l 704 1208 l 349 1208 l 349 1128 z "},"ē":{"ha":1054,"x_min":0,"x_max":0,"o":"m 990 0 l 990 176 l 263 176 l 263 833 l 989 833 l 989 1010 l 88 1010 l 88 0 z m 951 439 l 951 588 l 392 588 l 392 439 z m 704 1128 l 704 1208 l 349 1208 l 349 1128 z "},"Ė":{"ha":1054,"x_min":0,"x_max":0,"o":"m 990 0 l 990 176 l 263 176 l 263 833 l 989 833 l 989 1010 l 88 1010 l 88 0 z m 951 439 l 951 588 l 392 588 l 392 439 z m 597 1178 b 526 1240 597 1217 567 1240 b 456 1178 486 1240 456 1217 b 526 1115 456 1139 486 1115 b 597 1178 567 1115 597 1139 z "},"ė":{"ha":1054,"x_min":0,"x_max":0,"o":"m 990 0 l 990 176 l 263 176 l 263 833 l 989 833 l 989 1010 l 88 1010 l 88 0 z m 951 439 l 951 588 l 392 588 l 392 439 z m 597 1178 b 526 1240 597 1217 567 1240 b 456 1178 486 1240 456 1217 b 526 1115 456 1139 486 1115 b 597 1178 567 1115 597 1139 z "},"Ę":{"ha":1054,"x_min":0,"x_max":0,"o":"m 990 -279 l 990 -164 l 876 -164 b 832 -129 849 -164 832 -150 b 864 -85 832 -111 844 -99 l 990 0 l 990 176 l 263 176 l 263 833 l 989 833 l 989 1010 l 88 1010 l 88 0 l 908 0 l 783 -82 b 728 -176 751 -103 728 -135 b 872 -279 728 -239 776 -279 z m 951 439 l 951 588 l 392 588 l 392 439 z "},"ę":{"ha":1054,"x_min":0,"x_max":0,"o":"m 990 -279 l 990 -164 l 876 -164 b 832 -129 849 -164 832 -150 b 864 -85 832 -111 844 -99 l 990 0 l 990 176 l 263 176 l 263 833 l 989 833 l 989 1010 l 88 1010 l 88 0 l 908 0 l 783 -82 b 728 -176 751 -103 728 -135 b 872 -279 728 -239 776 -279 z m 951 439 l 951 588 l 392 588 l 392 439 z "},"Ě":{"ha":1054,"x_min":0,"x_max":0,"o":"m 990 0 l 990 176 l 263 176 l 263 833 l 989 833 l 989 1010 l 88 1010 l 88 0 z m 951 439 l 951 588 l 392 588 l 392 439 z m 589 1072 l 717 1258 l 619 1258 l 532 1121 l 521 1121 l 433 1258 l 338 1258 l 463 1072 z "},"ě":{"ha":1054,"x_min":0,"x_max":0,"o":"m 990 0 l 990 176 l 263 176 l 263 833 l 989 833 l 989 1010 l 88 1010 l 88 0 z m 951 439 l 951 588 l 392 588 l 392 439 z m 589 1072 l 717 1258 l 619 1258 l 532 1121 l 521 1121 l 433 1258 l 338 1258 l 463 1072 z "},"Ğ":{"ha":1233,"x_min":0,"x_max":0,"o":"m 1158 0 l 1158 588 l 525 588 l 525 439 l 981 439 l 981 176 l 549 176 b 235 507 367 176 235 317 b 549 833 235 699 368 833 l 1096 833 l 1096 1010 l 549 1010 b 58 515 267 1010 58 813 b 549 0 58 222 267 0 z m 697 1072 b 850 1258 811 1072 850 1194 l 754 1258 b 678 1132 753 1211 739 1132 l 644 1132 b 561 1258 583 1132 563 1211 l 467 1258 b 621 1072 467 1194 507 1072 z "},"ğ":{"ha":1233,"x_min":0,"x_max":0,"o":"m 1158 0 l 1158 588 l 525 588 l 525 439 l 981 439 l 981 176 l 549 176 b 235 507 367 176 235 317 b 549 833 235 699 368 833 l 1096 833 l 1096 1010 l 549 1010 b 58 515 267 1010 58 813 b 549 0 58 222 267 0 z m 697 1072 b 850 1258 811 1072 850 1194 l 754 1258 b 678 1132 753 1211 739 1132 l 644 1132 b 561 1258 583 1132 563 1211 l 467 1258 b 621 1072 467 1194 507 1072 z "},"Ġ":{"ha":1233,"x_min":0,"x_max":0,"o":"m 1158 0 l 1158 588 l 525 588 l 525 439 l 981 439 l 981 176 l 549 176 b 235 507 367 176 235 317 b 549 833 235 699 368 833 l 1096 833 l 1096 1010 l 549 1010 b 58 515 267 1010 58 813 b 549 0 58 222 267 0 z m 743 1178 b 672 1240 743 1217 713 1240 b 601 1178 632 1240 601 1217 b 672 1115 601 1139 632 1115 b 743 1178 713 1115 743 1139 z "},"ġ":{"ha":1233,"x_min":0,"x_max":0,"o":"m 1158 0 l 1158 588 l 525 588 l 525 439 l 981 439 l 981 176 l 549 176 b 235 507 367 176 235 317 b 549 833 235 699 368 833 l 1096 833 l 1096 1010 l 549 1010 b 58 515 267 1010 58 813 b 549 0 58 222 267 0 z m 743 1178 b 672 1240 743 1217 713 1240 b 601 1178 632 1240 601 1217 b 672 1115 601 1139 632 1115 b 743 1178 713 1115 743 1139 z "},"Ģ":{"ha":1233,"x_min":0,"x_max":0,"o":"m 1158 0 l 1158 588 l 525 588 l 525 439 l 981 439 l 981 176 l 549 176 b 235 507 367 176 235 317 b 549 833 235 699 368 833 l 1096 833 l 1096 1010 l 549 1010 b 58 515 267 1010 58 813 b 549 0 58 222 267 0 z m 629 -279 l 722 -65 l 538 -65 z "},"ģ":{"ha":1233,"x_min":0,"x_max":0,"o":"m 1158 0 l 1158 588 l 525 588 l 525 439 l 981 439 l 981 176 l 549 176 b 235 507 367 176 235 317 b 549 833 235 699 368 833 l 1096 833 l 1096 1010 l 549 1010 b 58 515 267 1010 58 813 b 549 0 58 222 267 0 z m 629 -279 l 722 -65 l 538 -65 z "},"Ħ":{"ha":1164,"x_min":0,"x_max":0,"o":"m 1076 -4 l 1076 1010 l 900 1010 l 900 847 l 392 847 l 392 767 l 900 767 l 900 592 l 392 592 l 392 435 l 900 435 l 900 -4 z m 264 -4 l 264 1010 l 88 1010 l 88 -4 z "},"ħ":{"ha":1164,"x_min":0,"x_max":0,"o":"m 1076 -4 l 1076 1010 l 900 1010 l 900 847 l 392 847 l 392 767 l 900 767 l 900 592 l 392 592 l 392 435 l 900 435 l 900 -4 z m 264 -4 l 264 1010 l 88 1010 l 88 -4 z "},"Ī":{"ha":371,"x_min":0,"x_max":0,"o":"m 274 0 l 274 1010 l 97 1010 l 97 0 z m 364 1128 l 364 1208 l 8 1208 l 8 1128 z "},"ī":{"ha":371,"x_min":0,"x_max":0,"o":"m 274 0 l 274 1010 l 97 1010 l 97 0 z m 364 1128 l 364 1208 l 8 1208 l 8 1128 z "},"Ĭ":{"ha":371,"x_min":0,"x_max":0,"o":"m 274 0 l 274 1010 l 97 1010 l 97 0 z m 225 1072 b 378 1258 339 1072 378 1194 l 282 1258 b 206 1132 281 1211 267 1132 l 172 1132 b 89 1258 111 1132 90 1211 l -6 1258 b 149 1072 -6 1194 35 1072 z "},"ĭ":{"ha":371,"x_min":0,"x_max":0,"o":"m 274 0 l 274 1010 l 97 1010 l 97 0 z m 225 1072 b 378 1258 339 1072 378 1194 l 282 1258 b 206 1132 281 1211 267 1132 l 172 1132 b 89 1258 111 1132 90 1211 l -6 1258 b 149 1072 -6 1194 35 1072 z "},"Į":{"ha":371,"x_min":0,"x_max":0,"o":"m 274 -279 l 274 -164 l 160 -164 b 115 -129 132 -164 115 -150 b 147 -85 115 -111 128 -99 l 274 0 l 274 1010 l 97 1010 l 97 0 l 192 0 l 67 -82 b 11 -176 35 -103 11 -135 b 156 -279 11 -239 60 -279 z "},"į":{"ha":371,"x_min":0,"x_max":0,"o":"m 274 -279 l 274 -164 l 160 -164 b 115 -129 132 -164 115 -150 b 147 -85 115 -111 128 -99 l 274 0 l 274 1010 l 97 1010 l 97 0 l 192 0 l 67 -82 b 11 -176 35 -103 11 -135 b 156 -279 11 -239 60 -279 z "},"İ":{"ha":371,"x_min":0,"x_max":0,"o":"m 274 0 l 274 1010 l 97 1010 l 97 0 z m 256 1178 b 185 1240 256 1217 225 1240 b 114 1178 144 1240 114 1217 b 185 1115 114 1139 144 1115 b 256 1178 225 1115 256 1139 z "},"ı":{"ha":371,"x_min":0,"x_max":0,"o":"m 274 0 l 274 1010 l 97 1010 l 97 0 z "},"Ĳ":{"ha":1354,"x_min":0,"x_max":0,"o":"m 274 0 l 274 1010 l 97 1010 l 97 0 z m 774 0 b 1282 460 1125 0 1282 147 l 1282 1010 l 1106 1010 l 1106 460 b 774 176 1106 264 1010 176 l 404 176 l 404 0 z "},"ĳ":{"ha":1354,"x_min":0,"x_max":0,"o":"m 274 0 l 274 1010 l 97 1010 l 97 0 z m 774 0 b 1282 460 1125 0 1282 147 l 1282 1010 l 1106 1010 l 1106 460 b 774 176 1106 264 1010 176 l 404 176 l 404 0 z "},"Ķ":{"ha":1215,"x_min":0,"x_max":0,"o":"m 1189 0 l 507 517 l 1168 1010 l 897 1010 l 363 599 b 318 518 326 571 318 549 b 354 444 318 490 324 468 l 919 0 z m 264 0 l 264 1010 l 88 1010 l 88 0 z m 607 -279 l 700 -65 l 515 -65 z "},"ķ":{"ha":1215,"x_min":0,"x_max":0,"o":"m 1189 0 l 507 517 l 1168 1010 l 897 1010 l 363 599 b 318 518 326 571 318 549 b 354 444 318 490 324 468 l 919 0 z m 264 0 l 264 1010 l 88 1010 l 88 0 z m 607 -279 l 700 -65 l 515 -65 z "},"Ĺ":{"ha":982,"x_min":0,"x_max":0,"o":"m 943 0 l 943 176 l 264 176 l 264 1010 l 88 1010 l 88 0 z m 390 1149 l 390 1258 l 35 1151 l 35 1072 z "},"ĺ":{"ha":982,"x_min":0,"x_max":0,"o":"m 943 0 l 943 176 l 264 176 l 264 1010 l 88 1010 l 88 0 z m 390 1149 l 390 1258 l 35 1151 l 35 1072 z "},"Ļ":{"ha":982,"x_min":0,"x_max":0,"o":"m 943 0 l 943 176 l 264 176 l 264 1010 l 88 1010 l 88 0 z m 515 -279 l 608 -65 l 424 -65 z "},"ļ":{"ha":982,"x_min":0,"x_max":0,"o":"m 943 0 l 943 176 l 264 176 l 264 1010 l 88 1010 l 88 0 z m 515 -279 l 608 -65 l 424 -65 z "},"Ľ":{"ha":982,"x_min":0,"x_max":0,"o":"m 943 0 l 943 176 l 264 176 l 264 1010 l 88 1010 l 88 0 z m 542 649 l 611 1010 l 433 1010 l 433 649 z "},"ľ":{"ha":982,"x_min":0,"x_max":0,"o":"m 943 0 l 943 176 l 264 176 l 264 1010 l 88 1010 l 88 0 z m 542 649 l 611 1010 l 433 1010 l 433 649 z "},"Ł":{"ha":982,"x_min":0,"x_max":0,"o":"m 943 0 l 943 176 l 264 176 l 264 406 l 644 572 l 644 725 l 264 560 l 264 1010 l 88 1010 l 88 0 z "},"ł":{"ha":982,"x_min":0,"x_max":0,"o":"m 943 0 l 943 176 l 264 176 l 264 406 l 644 572 l 644 725 l 264 560 l 264 1010 l 88 1010 l 88 0 z "},"Ń":{"ha":1213,"x_min":0,"x_max":0,"o":"m 961 25 b 1042 -12 986 0 1013 -12 b 1129 93 1093 -12 1129 26 l 1129 1018 l 961 1018 l 961 279 l 249 986 b 174 1022 222 1013 200 1022 b 83 917 118 1022 83 982 l 83 0 l 251 0 l 251 739 z m 825 1149 l 825 1258 l 469 1151 l 469 1072 z "},"ń":{"ha":1213,"x_min":0,"x_max":0,"o":"m 961 25 b 1042 -12 986 0 1013 -12 b 1129 93 1093 -12 1129 26 l 1129 1018 l 961 1018 l 961 279 l 249 986 b 174 1022 222 1013 200 1022 b 83 917 118 1022 83 982 l 83 0 l 251 0 l 251 739 z m 825 1149 l 825 1258 l 469 1151 l 469 1072 z "},"Ņ":{"ha":1213,"x_min":0,"x_max":0,"o":"m 961 25 b 1042 -12 986 0 1013 -12 b 1129 93 1093 -12 1129 26 l 1129 1018 l 961 1018 l 961 279 l 249 986 b 174 1022 222 1013 200 1022 b 83 917 118 1022 83 982 l 83 0 l 251 0 l 251 739 z m 606 -279 l 699 -65 l 514 -65 z "},"ņ":{"ha":1213,"x_min":0,"x_max":0,"o":"m 961 25 b 1042 -12 986 0 1013 -12 b 1129 93 1093 -12 1129 26 l 1129 1018 l 961 1018 l 961 279 l 249 986 b 174 1022 222 1013 200 1022 b 83 917 118 1022 83 982 l 83 0 l 251 0 l 251 739 z m 606 -279 l 699 -65 l 514 -65 z "},"Ň":{"ha":1213,"x_min":0,"x_max":0,"o":"m 961 25 b 1042 -12 986 0 1013 -12 b 1129 93 1093 -12 1129 26 l 1129 1018 l 961 1018 l 961 279 l 249 986 b 174 1022 222 1013 200 1022 b 83 917 118 1022 83 982 l 83 0 l 251 0 l 251 739 z m 668 1072 l 796 1258 l 699 1258 l 611 1121 l 600 1121 l 513 1258 l 417 1258 l 542 1072 z "},"ň":{"ha":1213,"x_min":0,"x_max":0,"o":"m 961 25 b 1042 -12 986 0 1013 -12 b 1129 93 1093 -12 1129 26 l 1129 1018 l 961 1018 l 961 279 l 249 986 b 174 1022 222 1013 200 1022 b 83 917 118 1022 83 982 l 83 0 l 251 0 l 251 739 z m 668 1072 l 796 1258 l 699 1258 l 611 1121 l 600 1121 l 513 1258 l 417 1258 l 542 1072 z "},"Ŋ":{"ha":1213,"x_min":0,"x_max":0,"o":"m 621 -279 b 1129 93 914 -279 1129 -156 l 1129 1018 l 961 1018 l 961 279 l 249 986 b 174 1022 222 1013 200 1022 b 83 917 118 1022 83 982 l 83 0 l 251 0 l 251 739 l 939 47 b 621 -103 897 -56 794 -103 l 488 -103 l 488 -279 z "},"ŋ":{"ha":1213,"x_min":0,"x_max":0,"o":"m 621 -279 b 1129 93 914 -279 1129 -156 l 1129 1018 l 961 1018 l 961 279 l 249 986 b 174 1022 222 1013 200 1022 b 83 917 118 1022 83 982 l 83 0 l 251 0 l 251 739 l 939 47 b 621 -103 897 -56 794 -103 l 488 -103 l 488 -279 z "},"Ō":{"ha":1344,"x_min":0,"x_max":0,"o":"m 794 0 b 1289 515 1082 0 1289 222 b 794 1010 1289 808 1086 1010 l 549 1010 b 58 515 267 1010 58 813 b 549 0 58 222 267 0 z m 549 176 b 235 507 367 176 235 317 b 549 833 235 699 368 833 l 794 833 b 1113 507 981 833 1113 697 b 794 176 1113 317 981 176 z m 850 1128 l 850 1208 l 494 1208 l 494 1128 z "},"ō":{"ha":1344,"x_min":0,"x_max":0,"o":"m 794 0 b 1289 515 1082 0 1289 222 b 794 1010 1289 808 1086 1010 l 549 1010 b 58 515 267 1010 58 813 b 549 0 58 222 267 0 z m 549 176 b 235 507 367 176 235 317 b 549 833 235 699 368 833 l 794 833 b 1113 507 981 833 1113 697 b 794 176 1113 317 981 176 z m 850 1128 l 850 1208 l 494 1208 l 494 1128 z "},"Ő":{"ha":1344,"x_min":0,"x_max":0,"o":"m 794 0 b 1289 515 1082 0 1289 222 b 794 1010 1289 808 1086 1010 l 549 1010 b 58 515 267 1010 58 813 b 549 0 58 222 267 0 z m 549 176 b 235 507 367 176 235 317 b 549 833 235 699 368 833 l 794 833 b 1113 507 981 833 1113 697 b 794 176 1113 317 981 176 z m 813 1085 l 925 1258 l 804 1258 l 739 1085 z m 590 1085 l 704 1258 l 583 1258 l 518 1085 z "},"ő":{"ha":1344,"x_min":0,"x_max":0,"o":"m 794 0 b 1289 515 1082 0 1289 222 b 794 1010 1289 808 1086 1010 l 549 1010 b 58 515 267 1010 58 813 b 549 0 58 222 267 0 z m 549 176 b 235 507 367 176 235 317 b 549 833 235 699 368 833 l 794 833 b 1113 507 981 833 1113 697 b 794 176 1113 317 981 176 z m 813 1085 l 925 1258 l 804 1258 l 739 1085 z m 590 1085 l 704 1258 l 583 1258 l 518 1085 z "},"Œ":{"ha":1811,"x_min":0,"x_max":0,"o":"m 1747 0 l 1747 176 l 1060 176 l 1060 833 l 1746 833 l 1746 1010 l 549 1010 b 58 515 267 1010 58 813 b 549 0 58 222 267 0 z m 883 176 l 549 176 b 235 507 367 176 235 317 b 549 833 235 699 368 833 l 883 833 z m 1707 439 l 1707 588 l 1188 588 l 1188 439 z "},"œ":{"ha":1811,"x_min":0,"x_max":0,"o":"m 1747 0 l 1747 176 l 1060 176 l 1060 833 l 1746 833 l 1746 1010 l 549 1010 b 58 515 267 1010 58 813 b 549 0 58 222 267 0 z m 883 176 l 549 176 b 235 507 367 176 235 317 b 549 833 235 699 368 833 l 883 833 z m 1707 439 l 1707 588 l 1188 588 l 1188 439 z "},"Ŕ":{"ha":1279,"x_min":0,"x_max":0,"o":"m 1275 0 l 971 307 b 1179 642 1101 357 1179 475 b 813 1010 1179 867 1043 1010 l 88 1010 l 88 0 l 263 0 l 263 833 l 813 833 b 1006 639 933 833 1006 769 b 813 436 1006 508 939 436 l 392 436 l 392 281 l 769 281 l 1025 0 z m 803 1149 l 803 1258 l 447 1151 l 447 1072 z "},"ŕ":{"ha":1279,"x_min":0,"x_max":0,"o":"m 1275 0 l 971 307 b 1179 642 1101 357 1179 475 b 813 1010 1179 867 1043 1010 l 88 1010 l 88 0 l 263 0 l 263 833 l 813 833 b 1006 639 933 833 1006 769 b 813 436 1006 508 939 436 l 392 436 l 392 281 l 769 281 l 1025 0 z m 803 1149 l 803 1258 l 447 1151 l 447 1072 z "},"Ŗ":{"ha":1279,"x_min":0,"x_max":0,"o":"m 1275 0 l 971 307 b 1179 642 1101 357 1179 475 b 813 1010 1179 867 1043 1010 l 88 1010 l 88 0 l 263 0 l 263 833 l 813 833 b 1006 639 933 833 1006 769 b 813 436 1006 508 939 436 l 392 436 l 392 281 l 769 281 l 1025 0 z m 639 -279 l 732 -65 l 547 -65 z "},"ŗ":{"ha":1279,"x_min":0,"x_max":0,"o":"m 1275 0 l 971 307 b 1179 642 1101 357 1179 475 b 813 1010 1179 867 1043 1010 l 88 1010 l 88 0 l 263 0 l 263 833 l 813 833 b 1006 639 933 833 1006 769 b 813 436 1006 508 939 436 l 392 436 l 392 281 l 769 281 l 1025 0 z m 639 -279 l 732 -65 l 547 -65 z "},"Ř":{"ha":1279,"x_min":0,"x_max":0,"o":"m 1275 0 l 971 307 b 1179 642 1101 357 1179 475 b 813 1010 1179 867 1043 1010 l 88 1010 l 88 0 l 263 0 l 263 833 l 813 833 b 1006 639 933 833 1006 769 b 813 436 1006 508 939 436 l 392 436 l 392 281 l 769 281 l 1025 0 z m 646 1072 l 774 1258 l 676 1258 l 589 1121 l 578 1121 l 490 1258 l 394 1258 l 519 1072 z "},"ř":{"ha":1279,"x_min":0,"x_max":0,"o":"m 1275 0 l 971 307 b 1179 642 1101 357 1179 475 b 813 1010 1179 867 1043 1010 l 88 1010 l 88 0 l 263 0 l 263 833 l 813 833 b 1006 639 933 833 1006 769 b 813 436 1006 508 939 436 l 392 436 l 392 281 l 769 281 l 1025 0 z m 646 1072 l 774 1258 l 676 1258 l 589 1121 l 578 1121 l 490 1258 l 394 1258 l 519 1072 z "},"Ś":{"ha":1222,"x_min":0,"x_max":0,"o":"m 844 0 b 1158 296 1056 0 1158 126 b 844 588 1158 492 1049 588 l 382 588 b 256 710 304 588 256 633 b 383 833 256 786 303 833 l 1108 833 l 1108 1010 l 383 1010 b 72 726 182 1010 72 889 b 381 439 72 560 190 439 l 844 439 b 992 308 939 439 992 394 b 844 176 992 229 939 176 l 88 176 l 88 0 z m 831 1149 l 831 1258 l 475 1151 l 475 1072 z "},"ś":{"ha":1222,"x_min":0,"x_max":0,"o":"m 844 0 b 1158 296 1056 0 1158 126 b 844 588 1158 492 1049 588 l 382 588 b 256 710 304 588 256 633 b 383 833 256 786 303 833 l 1108 833 l 1108 1010 l 383 1010 b 72 726 182 1010 72 889 b 381 439 72 560 190 439 l 844 439 b 992 308 939 439 992 394 b 844 176 992 229 939 176 l 88 176 l 88 0 z m 831 1149 l 831 1258 l 475 1151 l 475 1072 z "},"Ş":{"ha":1222,"x_min":0,"x_max":0,"o":"m 844 0 b 1158 296 1056 0 1158 126 b 844 588 1158 492 1049 588 l 382 588 b 256 710 304 588 256 633 b 383 833 256 786 303 833 l 1108 833 l 1108 1010 l 383 1010 b 72 726 182 1010 72 889 b 381 439 72 560 190 439 l 844 439 b 992 308 939 439 992 394 b 844 176 992 229 939 176 l 88 176 l 88 0 z m 610 -279 l 703 -65 l 518 -65 z "},"ş":{"ha":1222,"x_min":0,"x_max":0,"o":"m 844 0 b 1158 296 1056 0 1158 126 b 844 588 1158 492 1049 588 l 382 588 b 256 710 304 588 256 633 b 383 833 256 786 303 833 l 1108 833 l 1108 1010 l 383 1010 b 72 726 182 1010 72 889 b 381 439 72 560 190 439 l 844 439 b 992 308 939 439 992 394 b 844 176 992 229 939 176 l 88 176 l 88 0 z m 610 -279 l 703 -65 l 518 -65 z "},"Š":{"ha":1222,"x_min":0,"x_max":0,"o":"m 844 0 b 1158 296 1056 0 1158 126 b 844 588 1158 492 1049 588 l 382 588 b 256 710 304 588 256 633 b 383 833 256 786 303 833 l 1108 833 l 1108 1010 l 383 1010 b 72 726 182 1010 72 889 b 381 439 72 560 190 439 l 844 439 b 992 308 939 439 992 394 b 844 176 992 229 939 176 l 88 176 l 88 0 z m 686 1072 l 814 1258 l 717 1258 l 629 1121 l 618 1121 l 531 1258 l 435 1258 l 560 1072 z "},"š":{"ha":1222,"x_min":0,"x_max":0,"o":"m 844 0 b 1158 296 1056 0 1158 126 b 844 588 1158 492 1049 588 l 382 588 b 256 710 304 588 256 633 b 383 833 256 786 303 833 l 1108 833 l 1108 1010 l 383 1010 b 72 726 182 1010 72 889 b 381 439 72 560 190 439 l 844 439 b 992 308 939 439 992 394 b 844 176 992 229 939 176 l 88 176 l 88 0 z m 686 1072 l 814 1258 l 717 1258 l 629 1121 l 618 1121 l 531 1258 l 435 1258 l 560 1072 z "},"Ť":{"ha":1000,"x_min":0,"x_max":0,"o":"m 588 0 l 588 833 l 971 833 l 971 1010 l 28 1010 l 28 833 l 411 833 l 411 0 z m 561 1072 l 689 1258 l 592 1258 l 504 1121 l 493 1121 l 406 1258 l 310 1258 l 435 1072 z "},"ť":{"ha":1000,"x_min":0,"x_max":0,"o":"m 588 0 l 588 833 l 971 833 l 971 1010 l 28 1010 l 28 833 l 411 833 l 411 0 z m 561 1072 l 689 1258 l 592 1258 l 504 1121 l 493 1121 l 406 1258 l 310 1258 l 435 1072 z "},"Ŧ":{"ha":1000,"x_min":0,"x_max":0,"o":"m 588 0 l 588 356 l 750 356 l 750 474 l 588 474 l 588 833 l 971 833 l 971 1010 l 28 1010 l 28 833 l 411 833 l 411 474 l 250 474 l 250 356 l 411 356 l 411 0 z "},"ŧ":{"ha":1000,"x_min":0,"x_max":0,"o":"m 588 0 l 588 356 l 750 356 l 750 474 l 588 474 l 588 833 l 971 833 l 971 1010 l 28 1010 l 28 833 l 411 833 l 411 474 l 250 474 l 250 356 l 411 356 l 411 0 z "},"Ũ":{"ha":1235,"x_min":0,"x_max":0,"o":"m 990 446 b 622 160 990 243 900 160 b 254 446 344 160 254 243 l 254 1010 l 72 1010 l 72 446 b 617 -14 72 133 228 -14 b 1163 446 1008 -14 1163 133 l 1163 1010 l 990 1010 z m 794 1226 b 703 1176 776 1200 740 1176 b 529 1232 642 1176 593 1232 b 439 1190 492 1232 458 1215 l 439 1108 b 529 1157 456 1133 493 1157 b 703 1103 592 1157 642 1103 b 794 1143 740 1103 774 1117 z "},"ũ":{"ha":1235,"x_min":0,"x_max":0,"o":"m 990 446 b 622 160 990 243 900 160 b 254 446 344 160 254 243 l 254 1010 l 72 1010 l 72 446 b 617 -14 72 133 228 -14 b 1163 446 1008 -14 1163 133 l 1163 1010 l 990 1010 z m 794 1226 b 703 1176 776 1200 740 1176 b 529 1232 642 1176 593 1232 b 439 1190 492 1232 458 1215 l 439 1108 b 529 1157 456 1133 493 1157 b 703 1103 592 1157 642 1103 b 794 1143 740 1103 774 1117 z "},"Ū":{"ha":1235,"x_min":0,"x_max":0,"o":"m 990 446 b 622 160 990 243 900 160 b 254 446 344 160 254 243 l 254 1010 l 72 1010 l 72 446 b 617 -14 72 133 228 -14 b 1163 446 1008 -14 1163 133 l 1163 1010 l 990 1010 z m 794 1128 l 794 1208 l 439 1208 l 439 1128 z "},"ū":{"ha":1235,"x_min":0,"x_max":0,"o":"m 990 446 b 622 160 990 243 900 160 b 254 446 344 160 254 243 l 254 1010 l 72 1010 l 72 446 b 617 -14 72 133 228 -14 b 1163 446 1008 -14 1163 133 l 1163 1010 l 990 1010 z m 794 1128 l 794 1208 l 439 1208 l 439 1128 z "},"Ŭ":{"ha":1235,"x_min":0,"x_max":0,"o":"m 990 446 b 622 160 990 243 900 160 b 254 446 344 160 254 243 l 254 1010 l 72 1010 l 72 446 b 617 -14 72 133 228 -14 b 1163 446 1008 -14 1163 133 l 1163 1010 l 990 1010 z m 656 1072 b 808 1258 769 1072 808 1194 l 713 1258 b 636 1132 711 1211 697 1132 l 603 1132 b 519 1258 542 1132 521 1211 l 425 1258 b 579 1072 425 1194 465 1072 z "},"ŭ":{"ha":1235,"x_min":0,"x_max":0,"o":"m 990 446 b 622 160 990 243 900 160 b 254 446 344 160 254 243 l 254 1010 l 72 1010 l 72 446 b 617 -14 72 133 228 -14 b 1163 446 1008 -14 1163 133 l 1163 1010 l 990 1010 z m 656 1072 b 808 1258 769 1072 808 1194 l 713 1258 b 636 1132 711 1211 697 1132 l 603 1132 b 519 1258 542 1132 521 1211 l 425 1258 b 579 1072 425 1194 465 1072 z "},"Ů":{"ha":1235,"x_min":0,"x_max":0,"o":"m 990 446 b 622 160 990 243 900 160 b 254 446 344 160 254 243 l 254 1010 l 72 1010 l 72 446 b 617 -14 72 133 228 -14 b 1163 446 1008 -14 1163 133 l 1163 1010 l 990 1010 z m 651 1072 b 794 1215 735 1072 794 1135 b 651 1354 794 1299 735 1354 l 581 1354 b 439 1215 499 1354 439 1299 b 581 1072 439 1135 499 1072 z m 581 1124 b 492 1214 528 1124 492 1163 b 581 1301 492 1265 529 1301 l 651 1301 b 742 1214 704 1301 742 1265 b 651 1124 742 1163 704 1124 z "},"ů":{"ha":1235,"x_min":0,"x_max":0,"o":"m 990 446 b 622 160 990 243 900 160 b 254 446 344 160 254 243 l 254 1010 l 72 1010 l 72 446 b 617 -14 72 133 228 -14 b 1163 446 1008 -14 1163 133 l 1163 1010 l 990 1010 z m 651 1072 b 794 1215 735 1072 794 1135 b 651 1354 794 1299 735 1354 l 581 1354 b 439 1215 499 1354 439 1299 b 581 1072 439 1135 499 1072 z m 581 1124 b 492 1214 528 1124 492 1163 b 581 1301 492 1265 529 1301 l 651 1301 b 742 1214 704 1301 742 1265 b 651 1124 742 1163 704 1124 z "},"Ű":{"ha":1235,"x_min":0,"x_max":0,"o":"m 990 446 b 622 160 990 243 900 160 b 254 446 344 160 254 243 l 254 1010 l 72 1010 l 72 446 b 617 -14 72 133 228 -14 b 1163 446 1008 -14 1163 133 l 1163 1010 l 990 1010 z m 757 1085 l 869 1258 l 749 1258 l 683 1085 z m 535 1085 l 649 1258 l 528 1258 l 463 1085 z "},"ű":{"ha":1235,"x_min":0,"x_max":0,"o":"m 990 446 b 622 160 990 243 900 160 b 254 446 344 160 254 243 l 254 1010 l 72 1010 l 72 446 b 617 -14 72 133 228 -14 b 1163 446 1008 -14 1163 133 l 1163 1010 l 990 1010 z m 757 1085 l 869 1258 l 749 1258 l 683 1085 z m 535 1085 l 649 1258 l 528 1258 l 463 1085 z "},"Ų":{"ha":1235,"x_min":0,"x_max":0,"o":"m 749 -279 l 749 -164 l 635 -164 b 590 -129 607 -164 590 -150 b 622 -85 590 -111 603 -99 l 735 -8 b 1163 446 1039 19 1163 167 l 1163 1010 l 990 1010 l 990 446 b 622 160 990 243 900 160 b 254 446 344 160 254 243 l 254 1010 l 72 1010 l 72 446 b 617 -14 72 133 228 -14 l 644 -14 l 542 -82 b 486 -176 510 -103 486 -135 b 631 -279 486 -239 535 -279 z "},"ų":{"ha":1235,"x_min":0,"x_max":0,"o":"m 749 -279 l 749 -164 l 635 -164 b 590 -129 607 -164 590 -150 b 622 -85 590 -111 603 -99 l 735 -8 b 1163 446 1039 19 1163 167 l 1163 1010 l 990 1010 l 990 446 b 622 160 990 243 900 160 b 254 446 344 160 254 243 l 254 1010 l 72 1010 l 72 446 b 617 -14 72 133 228 -14 l 644 -14 l 542 -82 b 486 -176 510 -103 486 -135 b 631 -279 486 -239 535 -279 z "},"Ŵ":{"ha":1761,"x_min":0,"x_max":0,"o":"m 1036 42 b 1126 -14 1056 4 1089 -14 b 1218 42 1164 -14 1197 4 l 1740 1010 l 1543 1010 l 1132 233 l 742 1010 l 529 1010 l 792 508 l 639 233 l 231 1010 l 19 1010 l 542 42 b 633 -14 563 4 594 -14 b 724 42 669 -14 704 4 l 881 338 z m 1069 1072 l 943 1258 l 817 1258 l 690 1072 l 786 1072 l 874 1207 l 885 1207 l 972 1072 z "},"ŵ":{"ha":1761,"x_min":0,"x_max":0,"o":"m 1036 42 b 1126 -14 1056 4 1089 -14 b 1218 42 1164 -14 1197 4 l 1740 1010 l 1543 1010 l 1132 233 l 742 1010 l 529 1010 l 792 508 l 639 233 l 231 1010 l 19 1010 l 542 42 b 633 -14 563 4 594 -14 b 724 42 669 -14 704 4 l 881 338 z m 1069 1072 l 943 1258 l 817 1258 l 690 1072 l 786 1072 l 874 1207 l 885 1207 l 972 1072 z "},"Ŷ":{"ha":1286,"x_min":0,"x_max":0,"o":"m 731 0 l 731 383 l 1268 1010 l 1043 1010 l 649 544 l 256 1010 l 18 1010 l 554 383 l 554 0 z m 838 1072 l 711 1258 l 585 1258 l 458 1072 l 554 1072 l 642 1207 l 653 1207 l 740 1072 z "},"ŷ":{"ha":1286,"x_min":0,"x_max":0,"o":"m 731 0 l 731 383 l 1268 1010 l 1043 1010 l 649 544 l 256 1010 l 18 1010 l 554 383 l 554 0 z m 838 1072 l 711 1258 l 585 1258 l 458 1072 l 554 1072 l 642 1207 l 653 1207 l 740 1072 z "},"Ÿ":{"ha":1286,"x_min":0,"x_max":0,"o":"m 731 0 l 731 383 l 1268 1010 l 1043 1010 l 649 544 l 256 1010 l 18 1010 l 554 383 l 554 0 z m 590 1178 b 521 1240 590 1217 560 1240 b 449 1178 479 1240 449 1217 b 521 1115 449 1139 479 1115 b 590 1178 560 1115 590 1139 z m 847 1178 b 776 1240 847 1217 817 1240 b 706 1178 736 1240 706 1217 b 776 1115 706 1139 736 1115 b 847 1178 817 1115 847 1139 z "},"Ź":{"ha":1114,"x_min":0,"x_max":0,"o":"m 1047 0 l 1047 168 l 344 168 l 1015 844 b 1051 919 1039 868 1051 893 b 951 1010 1051 979 1003 1010 l 68 1010 l 68 842 l 763 842 l 92 165 b 56 90 68 142 56 117 b 156 0 56 31 103 0 z m 776 1149 l 776 1258 l 421 1151 l 421 1072 z "},"ź":{"ha":1114,"x_min":0,"x_max":0,"o":"m 1047 0 l 1047 168 l 344 168 l 1015 844 b 1051 919 1039 868 1051 893 b 951 1010 1051 979 1003 1010 l 68 1010 l 68 842 l 763 842 l 92 165 b 56 90 68 142 56 117 b 156 0 56 31 103 0 z m 776 1149 l 776 1258 l 421 1151 l 421 1072 z "},"Ż":{"ha":1114,"x_min":0,"x_max":0,"o":"m 1047 0 l 1047 168 l 344 168 l 1015 844 b 1051 919 1039 868 1051 893 b 951 1010 1051 979 1003 1010 l 68 1010 l 68 842 l 763 842 l 92 165 b 56 90 68 142 56 117 b 156 0 56 31 103 0 z m 628 1178 b 557 1240 628 1217 597 1240 b 486 1178 517 1240 486 1217 b 557 1115 486 1139 517 1115 b 628 1178 597 1115 628 1139 z "},"ż":{"ha":1114,"x_min":0,"x_max":0,"o":"m 1047 0 l 1047 168 l 344 168 l 1015 844 b 1051 919 1039 868 1051 893 b 951 1010 1051 979 1003 1010 l 68 1010 l 68 842 l 763 842 l 92 165 b 56 90 68 142 56 117 b 156 0 56 31 103 0 z m 628 1178 b 557 1240 628 1217 597 1240 b 486 1178 517 1240 486 1217 b 557 1115 486 1139 517 1115 b 628 1178 597 1115 628 1139 z "},"Ž":{"ha":1114,"x_min":0,"x_max":0,"o":"m 1047 0 l 1047 168 l 344 168 l 1015 844 b 1051 919 1039 868 1051 893 b 951 1010 1051 979 1003 1010 l 68 1010 l 68 842 l 763 842 l 92 165 b 56 90 68 142 56 117 b 156 0 56 31 103 0 z m 604 1072 l 732 1258 l 635 1258 l 547 1121 l 536 1121 l 449 1258 l 353 1258 l 478 1072 z "},"ž":{"ha":1114,"x_min":0,"x_max":0,"o":"m 1047 0 l 1047 168 l 344 168 l 1015 844 b 1051 919 1039 868 1051 893 b 951 1010 1051 979 1003 1010 l 68 1010 l 68 842 l 763 842 l 92 165 b 56 90 68 142 56 117 b 156 0 56 31 103 0 z m 604 1072 l 732 1258 l 635 1258 l 547 1121 l 536 1121 l 449 1258 l 353 1258 l 478 1072 z "},"Ș":{"ha":1222,"x_min":0,"x_max":0,"o":"m 844 0 b 1158 296 1056 0 1158 126 b 844 588 1158 492 1049 588 l 382 588 b 256 710 304 588 256 633 b 383 833 256 786 303 833 l 1108 833 l 1108 1010 l 383 1010 b 72 726 182 1010 72 889 b 381 439 72 560 190 439 l 844 439 b 992 308 939 439 992 394 b 844 176 992 229 939 176 l 88 176 l 88 0 z m 610 -279 l 703 -65 l 518 -65 z "},"ș":{"ha":1222,"x_min":0,"x_max":0,"o":"m 844 0 b 1158 296 1056 0 1158 126 b 844 588 1158 492 1049 588 l 382 588 b 256 710 304 588 256 633 b 383 833 256 786 303 833 l 1108 833 l 1108 1010 l 383 1010 b 72 726 182 1010 72 889 b 381 439 72 560 190 439 l 844 439 b 992 308 939 439 992 394 b 844 176 992 229 939 176 l 88 176 l 88 0 z m 610 -279 l 703 -65 l 518 -65 z "},"Ț":{"ha":1000,"x_min":0,"x_max":0,"o":"m 588 0 l 588 833 l 971 833 l 971 1010 l 28 1010 l 28 833 l 411 833 l 411 0 z m 499 -279 l 592 -65 l 407 -65 z "},"ț":{"ha":1000,"x_min":0,"x_max":0,"o":"m 588 0 l 588 833 l 971 833 l 971 1010 l 28 1010 l 28 833 l 411 833 l 411 0 z m 499 -279 l 592 -65 l 407 -65 z "},"ˆ":{"ha":526,"x_min":0,"x_max":0,"o":"m 453 1072 l 326 1258 l 200 1258 l 74 1072 l 169 1072 l 257 1207 l 268 1207 l 356 1072 z "},"ˇ":{"ha":526,"x_min":0,"x_max":0,"o":"m 325 1072 l 453 1258 l 356 1258 l 268 1121 l 257 1121 l 169 1258 l 74 1258 l 199 1072 z "},"˘":{"ha":531,"x_min":0,"x_max":0,"o":"m 304 1072 b 457 1258 418 1072 457 1194 l 361 1258 b 285 1132 360 1211 346 1132 l 251 1132 b 168 1258 190 1132 169 1211 l 74 1258 b 228 1072 74 1194 114 1072 z "},"˙":{"ha":289,"x_min":0,"x_max":0,"o":"m 215 1178 b 144 1240 215 1217 185 1240 b 74 1178 104 1240 74 1217 b 144 1115 74 1139 104 1115 b 215 1178 185 1115 215 1139 z "},"˚":{"ha":503,"x_min":0,"x_max":0,"o":"m 286 1072 b 429 1215 369 1072 429 1135 b 286 1354 429 1299 369 1354 l 215 1354 b 74 1215 133 1354 74 1299 b 215 1072 74 1135 133 1072 z m 215 1124 b 126 1214 163 1124 126 1163 b 215 1301 126 1265 164 1301 l 286 1301 b 376 1214 339 1301 376 1265 b 286 1124 376 1163 339 1124 z "},"˛":{"ha":325,"x_min":0,"x_max":0,"o":"m 289 -279 l 289 -164 l 175 -164 b 131 -129 147 -164 131 -150 b 163 -85 131 -111 143 -99 l 289 0 l 207 0 l 82 -82 b 26 -176 50 -103 26 -135 b 171 -279 26 -239 75 -279 z "},"˜":{"ha":503,"x_min":0,"x_max":0,"o":"m 429 1226 b 338 1176 411 1200 375 1176 b 164 1232 276 1176 228 1232 b 74 1190 126 1232 93 1215 l 74 1108 b 164 1157 90 1133 128 1157 b 338 1103 226 1157 276 1103 b 429 1143 375 1103 408 1117 z "},"˝":{"ha":554,"x_min":0,"x_max":0,"o":"m 368 1085 l 481 1258 l 360 1258 l 294 1085 z m 146 1085 l 260 1258 l 139 1258 l 74 1085 z "},"̦":{"ha":304,"x_min":0,"x_max":0,"o":"m 151 -279 l 244 -65 l 60 -65 z "},"Ẁ":{"ha":1761,"x_min":0,"x_max":0,"o":"m 1036 42 b 1126 -14 1056 4 1089 -14 b 1218 42 1164 -14 1197 4 l 1740 1010 l 1543 1010 l 1132 233 l 742 1010 l 529 1010 l 792 508 l 639 233 l 231 1010 l 19 1010 l 542 42 b 633 -14 563 4 594 -14 b 724 42 669 -14 704 4 l 881 338 z m 1017 1072 l 1017 1151 l 661 1258 l 661 1149 z "},"ẁ":{"ha":1761,"x_min":0,"x_max":0,"o":"m 1036 42 b 1126 -14 1056 4 1089 -14 b 1218 42 1164 -14 1197 4 l 1740 1010 l 1543 1010 l 1132 233 l 742 1010 l 529 1010 l 792 508 l 639 233 l 231 1010 l 19 1010 l 542 42 b 633 -14 563 4 594 -14 b 724 42 669 -14 704 4 l 881 338 z m 1017 1072 l 1017 1151 l 661 1258 l 661 1149 z "},"Ẃ":{"ha":1761,"x_min":0,"x_max":0,"o":"m 1036 42 b 1126 -14 1056 4 1089 -14 b 1218 42 1164 -14 1197 4 l 1740 1010 l 1543 1010 l 1132 233 l 742 1010 l 529 1010 l 792 508 l 639 233 l 231 1010 l 19 1010 l 542 42 b 633 -14 563 4 594 -14 b 724 42 669 -14 704 4 l 881 338 z m 1100 1149 l 1100 1258 l 744 1151 l 744 1072 z "},"ẃ":{"ha":1761,"x_min":0,"x_max":0,"o":"m 1036 42 b 1126 -14 1056 4 1089 -14 b 1218 42 1164 -14 1197 4 l 1740 1010 l 1543 1010 l 1132 233 l 742 1010 l 529 1010 l 792 508 l 639 233 l 231 1010 l 19 1010 l 542 42 b 633 -14 563 4 594 -14 b 724 42 669 -14 704 4 l 881 338 z m 1100 1149 l 1100 1258 l 744 1151 l 744 1072 z "},"Ẅ":{"ha":1761,"x_min":0,"x_max":0,"o":"m 1036 42 b 1126 -14 1056 4 1089 -14 b 1218 42 1164 -14 1197 4 l 1740 1010 l 1543 1010 l 1132 233 l 742 1010 l 529 1010 l 792 508 l 639 233 l 231 1010 l 19 1010 l 542 42 b 633 -14 563 4 594 -14 b 724 42 669 -14 704 4 l 881 338 z m 822 1178 b 753 1240 822 1217 792 1240 b 681 1178 711 1240 681 1217 b 753 1115 681 1139 711 1115 b 822 1178 792 1115 822 1139 z m 1079 1178 b 1008 1240 1079 1217 1049 1240 b 938 1178 968 1240 938 1217 b 1008 1115 938 1139 968 1115 b 1079 1178 1049 1115 1079 1139 z "},"ẅ":{"ha":1761,"x_min":0,"x_max":0,"o":"m 1036 42 b 1126 -14 1056 4 1089 -14 b 1218 42 1164 -14 1197 4 l 1740 1010 l 1543 1010 l 1132 233 l 742 1010 l 529 1010 l 792 508 l 639 233 l 231 1010 l 19 1010 l 542 42 b 633 -14 563 4 594 -14 b 724 42 669 -14 704 4 l 881 338 z m 822 1178 b 753 1240 822 1217 792 1240 b 681 1178 711 1240 681 1217 b 753 1115 681 1139 711 1115 b 822 1178 792 1115 822 1139 z m 1079 1178 b 1008 1240 1079 1217 1049 1240 b 938 1178 968 1240 938 1217 b 1008 1115 938 1139 968 1115 b 1079 1178 1049 1115 1079 1139 z "},"Ỳ":{"ha":1286,"x_min":0,"x_max":0,"o":"m 731 0 l 731 383 l 1268 1010 l 1043 1010 l 649 544 l 256 1010 l 18 1010 l 554 383 l 554 0 z m 783 1072 l 783 1151 l 428 1258 l 428 1149 z "},"ỳ":{"ha":1286,"x_min":0,"x_max":0,"o":"m 731 0 l 731 383 l 1268 1010 l 1043 1010 l 649 544 l 256 1010 l 18 1010 l 554 383 l 554 0 z m 783 1072 l 783 1151 l 428 1258 l 428 1149 z "},"–":{"ha":819,"x_min":0,"x_max":0,"o":"m 783 444 l 783 583 l 40 583 l 40 444 z "},"—":{"ha":1203,"x_min":0,"x_max":0,"o":"m 1165 444 l 1165 583 l 40 583 l 40 444 z "},"‘":{"ha":360,"x_min":0,"x_max":0,"o":"m 157 1010 l 88 649 l 272 649 l 272 1010 z "},"’":{"ha":360,"x_min":0,"x_max":0,"o":"m 203 649 l 272 1010 l 94 1010 l 94 649 z "},"‚":{"ha":360,"x_min":0,"x_max":0,"o":"m 203 -164 l 272 197 l 94 197 l 94 -164 z "},"“":{"ha":642,"x_min":0,"x_max":0,"o":"m 157 1010 l 88 649 l 272 649 l 272 1010 z m 454 1010 l 383 649 l 568 649 l 568 1010 z "},"”":{"ha":642,"x_min":0,"x_max":0,"o":"m 203 649 l 272 1010 l 94 1010 l 94 649 z m 499 649 l 568 1010 l 390 1010 l 390 649 z "},"„":{"ha":642,"x_min":0,"x_max":0,"o":"m 203 -164 l 272 197 l 94 197 l 94 -164 z m 499 -164 l 568 197 l 390 197 l 390 -164 z "},"†":{"ha":647,"x_min":0,"x_max":0,"o":"m 365 0 l 365 710 l 560 710 l 560 789 l 365 789 l 365 1010 l 285 1010 l 285 789 l 88 789 l 88 710 l 285 710 l 285 0 z "},"‡":{"ha":647,"x_min":0,"x_max":0,"o":"m 365 0 l 365 219 l 560 219 l 560 299 l 365 299 l 365 710 l 560 710 l 560 790 l 365 790 l 365 1010 l 285 1010 l 285 790 l 88 790 l 88 710 l 285 710 l 285 299 l 88 299 l 88 219 l 285 219 l 285 0 z "},"•":{"ha":574,"x_min":0,"x_max":0,"o":"m 486 515 b 285 715 486 625 394 715 b 88 515 176 715 88 625 b 285 315 88 407 176 315 b 486 515 394 315 486 407 z "},"…":{"ha":1819,"x_min":0,"x_max":0,"o":"m 276 83 b 181 178 276 136 235 178 b 88 83 128 178 88 136 b 181 -11 88 31 128 -11 b 276 83 235 -11 276 31 z m 1004 83 b 908 178 1004 136 963 178 b 815 83 856 178 815 136 b 908 -11 815 31 856 -11 b 1004 83 963 -11 1004 31 z m 1732 83 b 1636 178 1732 136 1690 178 b 1543 83 1583 178 1543 136 b 1636 -11 1543 31 1583 -11 b 1732 83 1690 -11 1732 31 z "},"‰":{"ha":1825,"x_min":0,"x_max":0,"o":"m 319 514 b 582 778 467 514 582 632 b 319 1032 582 926 467 1032 b 58 778 171 1032 58 926 b 319 514 58 632 171 514 z m 493 774 b 319 603 493 676 429 603 b 146 774 208 603 146 676 b 319 943 146 871 210 943 b 493 774 429 943 493 871 z m 214 -93 l 1124 1071 l 1006 1071 l 93 -93 z m 908 -21 b 1171 243 1056 -21 1171 97 b 908 497 1171 392 1056 497 b 647 243 760 497 647 392 b 908 -21 647 97 760 -21 z m 1082 239 b 908 68 1082 142 1018 68 b 735 239 797 68 735 142 b 908 408 735 336 799 408 b 1082 239 1018 408 1082 336 z m 1504 -21 b 1767 243 1651 -21 1767 97 b 1504 497 1767 392 1651 497 b 1243 243 1356 497 1243 392 b 1504 -21 1243 97 1356 -21 z m 1678 239 b 1504 68 1678 142 1614 68 b 1331 239 1393 68 1331 142 b 1504 408 1331 336 1394 408 b 1678 239 1614 408 1678 336 z "},"‹":{"ha":510,"x_min":0,"x_max":0,"o":"m 453 257 l 453 339 l 150 514 l 453 688 l 453 775 l 82 553 b 58 515 67 543 58 532 b 82 481 58 500 67 490 z "},"›":{"ha":511,"x_min":0,"x_max":0,"o":"m 431 481 b 454 515 444 489 454 500 b 431 553 454 532 444 544 l 58 775 l 58 688 l 361 514 l 58 339 l 58 257 z "},"⁄":{"ha":257,"x_min":0,"x_max":0,"o":"m -265 -93 l 644 1071 l 526 1071 l -386 -93 z "},"⁰":{"ha":624,"x_min":0,"x_max":0,"o":"m 311 514 b 574 778 458 514 574 632 b 311 1032 574 926 458 1032 b 50 778 163 1032 50 926 b 311 514 50 632 163 514 z m 485 774 b 311 603 485 676 421 603 b 138 774 200 603 138 676 b 311 943 138 871 201 943 b 485 774 421 943 485 871 z "},"⁴":{"ha":628,"x_min":0,"x_max":0,"o":"m 517 521 l 517 656 l 590 656 l 590 740 l 517 740 l 517 1025 l 429 1025 l 429 740 l 219 740 b 142 818 167 740 142 760 l 142 1025 l 54 1025 l 54 817 b 219 656 54 706 114 656 l 429 656 l 429 521 z "},"⁵":{"ha":656,"x_min":0,"x_max":0,"o":"m 443 521 b 599 668 547 521 599 583 b 443 814 599 767 544 814 l 156 814 l 156 938 l 575 938 l 575 1025 l 64 1025 l 64 740 l 443 740 b 515 675 489 740 515 718 b 443 608 515 635 490 608 l 64 608 l 64 521 z "},"⁶":{"ha":647,"x_min":0,"x_max":0,"o":"m 436 521 b 589 674 531 521 589 576 b 436 815 589 771 532 815 l 140 815 b 279 938 151 900 199 938 l 568 938 l 568 1025 l 279 1025 b 50 778 136 1025 50 950 b 279 521 50 606 136 521 z m 428 740 b 504 678 478 740 504 719 b 428 608 504 633 478 608 l 279 608 b 139 740 197 608 149 649 z "},"⁷":{"ha":567,"x_min":0,"x_max":0,"o":"m 169 521 l 514 942 b 531 983 528 958 531 971 b 475 1025 531 1007 515 1025 l 51 1025 l 51 938 l 400 938 l 56 521 z "},"⁸":{"ha":665,"x_min":0,"x_max":0,"o":"m 446 521 b 608 674 544 521 608 581 b 529 788 608 732 575 772 b 600 894 567 799 600 831 b 436 1025 600 981 535 1025 l 228 1025 b 65 894 131 1025 65 981 b 135 788 65 831 97 799 b 56 674 89 772 56 732 b 218 521 56 581 119 521 z m 443 740 b 519 675 492 740 519 717 b 425 608 519 631 481 608 l 240 608 b 144 675 185 608 144 631 b 222 740 144 717 172 740 z m 419 938 b 510 875 478 938 510 922 b 436 814 510 832 486 814 l 228 814 b 154 875 178 814 154 832 b 244 938 154 922 188 938 z "},"⁹":{"ha":639,"x_min":0,"x_max":0,"o":"m 360 521 b 589 768 501 521 589 596 b 360 1025 589 940 501 1025 l 196 1025 b 50 868 106 1025 50 957 b 196 719 50 764 104 719 l 497 719 b 360 608 483 642 436 608 l 107 608 l 107 521 z m 139 863 b 210 936 139 910 167 936 l 360 936 b 500 793 446 936 494 892 l 210 793 b 139 863 165 793 139 815 z "},"₀":{"ha":624,"x_min":0,"x_max":0,"o":"m 311 -21 b 574 243 458 -21 574 97 b 311 497 574 392 458 497 b 50 243 163 497 50 392 b 311 -21 50 97 163 -21 z m 485 239 b 311 68 485 142 421 68 b 138 239 200 68 138 142 b 311 408 138 336 201 408 b 485 239 421 408 485 336 z "},"₁":{"ha":308,"x_min":0,"x_max":0,"o":"m 244 -14 l 244 325 b 86 490 244 429 188 490 l 38 490 l 38 403 l 86 403 b 157 325 132 403 157 375 l 157 -14 z "},"₂":{"ha":614,"x_min":0,"x_max":0,"o":"m 549 -14 l 549 74 l 147 74 l 147 140 b 219 206 147 183 172 206 l 403 206 b 557 349 499 206 557 265 b 403 490 557 431 503 490 l 68 490 l 68 403 l 403 403 b 467 340 442 403 467 379 b 403 279 467 303 440 279 l 219 279 b 64 133 118 279 64 232 l 64 -14 z "},"₃":{"ha":615,"x_min":0,"x_max":0,"o":"m 399 -14 b 561 139 497 -14 561 47 b 482 253 561 197 528 238 b 551 360 519 264 551 296 b 389 490 551 446 486 490 l 54 490 l 54 403 l 371 403 b 463 340 429 403 463 388 b 389 279 463 297 439 279 l 172 279 l 172 206 l 394 206 b 471 140 444 206 471 182 b 376 74 471 97 432 74 l 53 74 l 53 -14 z "},"₄":{"ha":628,"x_min":0,"x_max":0,"o":"m 517 -14 l 517 121 l 590 121 l 590 206 l 517 206 l 517 490 l 429 490 l 429 206 l 219 206 b 142 283 167 206 142 225 l 142 490 l 54 490 l 54 282 b 219 121 54 171 114 121 l 429 121 l 429 -14 z "},"₅":{"ha":656,"x_min":0,"x_max":0,"o":"m 443 -14 b 599 133 547 -14 599 49 b 443 279 599 232 544 279 l 156 279 l 156 403 l 575 403 l 575 490 l 64 490 l 64 206 l 443 206 b 515 140 489 206 515 183 b 443 74 515 100 490 74 l 64 74 l 64 -14 z "},"₆":{"ha":647,"x_min":0,"x_max":0,"o":"m 436 -14 b 589 139 531 -14 589 42 b 436 281 589 236 532 281 l 140 281 b 279 403 151 365 199 403 l 568 403 l 568 490 l 279 490 b 50 243 136 490 50 415 b 279 -14 50 71 136 -14 z m 428 206 b 504 143 478 206 504 185 b 428 74 504 99 478 74 l 279 74 b 139 206 197 74 149 114 z "},"₇":{"ha":567,"x_min":0,"x_max":0,"o":"m 169 -14 l 514 407 b 531 449 528 424 531 436 b 475 490 531 472 515 490 l 51 490 l 51 403 l 400 403 l 56 -14 z "},"₈":{"ha":665,"x_min":0,"x_max":0,"o":"m 446 -14 b 608 139 544 -14 608 46 b 529 253 608 197 575 238 b 600 360 567 264 600 296 b 436 490 600 446 535 490 l 228 490 b 65 360 131 490 65 446 b 135 253 65 296 97 264 b 56 139 89 238 56 197 b 218 -14 56 46 119 -14 z m 443 206 b 519 140 492 206 519 182 b 425 74 519 96 481 74 l 240 74 b 144 140 185 74 144 96 b 222 206 144 182 172 206 z m 419 403 b 510 340 478 403 510 388 b 436 279 510 297 486 279 l 228 279 b 154 340 178 279 154 297 b 244 403 154 388 188 403 z "},"₉":{"ha":639,"x_min":0,"x_max":0,"o":"m 360 -14 b 589 233 501 -14 589 61 b 360 490 589 406 501 490 l 196 490 b 50 333 106 490 50 422 b 196 185 50 229 104 185 l 497 185 b 360 74 483 107 436 74 l 107 74 l 107 -14 z m 139 328 b 210 401 139 375 167 401 l 360 401 b 500 258 446 401 494 357 l 210 258 b 139 328 165 258 139 281 z "},"€":{"ha":1228,"x_min":0,"x_max":0,"o":"m 1104 0 l 1104 176 l 635 176 b 349 381 497 176 390 258 l 782 381 l 824 444 l 325 444 b 321 507 322 465 321 485 b 326 572 321 529 322 551 l 904 572 l 947 638 l 351 638 b 635 833 394 757 500 833 l 1068 833 l 1183 1010 l 635 1010 b 156 638 393 1010 206 864 l 60 638 l 42 572 l 146 572 b 143 515 144 554 143 533 b 147 444 143 490 144 467 l 60 444 l 42 381 l 158 381 b 635 0 211 157 397 0 z "},"℗":{"ha":1151,"x_min":0,"x_max":0,"o":"m 576 -14 b 1093 506 863 -14 1093 219 b 576 1022 1093 792 863 1022 b 58 506 290 1022 58 792 b 576 -14 58 219 290 -14 z m 579 33 b 108 504 315 33 108 244 b 579 976 108 765 315 976 b 1047 504 838 976 1047 765 b 579 33 1047 244 838 33 z m 682 422 b 840 572 781 422 840 483 b 682 721 840 663 781 721 l 365 721 l 365 297 l 417 297 l 417 668 l 682 668 b 789 569 749 668 789 631 b 682 469 789 510 749 469 l 489 469 l 489 422 z "},"™":{"ha":744,"x_min":0,"x_max":0,"o":"m 657 667 l 657 1010 l 601 1010 l 508 765 l 417 1010 l 360 1010 l 360 667 l 419 667 l 419 858 l 486 667 l 533 667 l 597 858 l 597 667 z m 219 667 l 219 950 l 314 950 l 314 1010 l 63 1010 l 63 950 l 158 950 l 158 667 z "},"⅓":{"ha":1321,"x_min":0,"x_max":0,"o":"m 381 521 l 381 860 b 222 1025 381 964 324 1025 l 174 1025 l 174 938 l 222 938 b 293 860 268 938 293 910 l 293 521 z m 179 -93 l 1089 1071 l 971 1071 l 58 -93 z m 1100 -14 b 1263 139 1199 -14 1263 47 b 1183 253 1263 197 1229 238 b 1253 360 1221 264 1253 296 b 1090 490 1253 446 1188 490 l 756 490 l 756 403 l 1072 403 b 1164 340 1131 403 1164 388 b 1090 279 1164 297 1140 279 l 874 279 l 874 206 l 1096 206 b 1172 140 1146 206 1172 182 b 1078 74 1172 97 1133 74 l 754 74 l 754 -14 z "},"⅔":{"ha":1360,"x_min":0,"x_max":0,"o":"m 543 521 l 543 608 l 142 608 l 142 675 b 214 740 142 718 167 740 l 397 740 b 551 883 493 740 551 800 b 397 1025 551 965 497 1025 l 63 1025 l 63 938 l 397 938 b 461 875 436 938 461 914 b 397 814 461 838 435 814 l 214 814 b 58 668 113 814 58 767 l 58 521 z m 260 -93 l 1169 1071 l 1051 1071 l 139 -93 z m 1139 -14 b 1301 139 1238 -14 1301 47 b 1222 253 1301 197 1268 238 b 1292 360 1260 264 1292 296 b 1129 490 1292 446 1226 490 l 794 490 l 794 403 l 1111 403 b 1203 340 1169 403 1203 388 b 1129 279 1203 297 1179 279 l 913 279 l 913 206 l 1135 206 b 1211 140 1185 206 1211 182 b 1117 74 1211 97 1172 74 l 793 74 l 793 -14 z "},"⅛":{"ha":1368,"x_min":0,"x_max":0,"o":"m 381 521 l 381 860 b 222 1025 381 964 324 1025 l 174 1025 l 174 938 l 222 938 b 293 860 268 938 293 910 l 293 521 z m 179 -93 l 1089 1071 l 971 1071 l 58 -93 z m 1147 -14 b 1310 139 1246 -14 1310 46 b 1231 253 1310 197 1276 238 b 1301 360 1268 264 1301 296 b 1138 490 1301 446 1236 490 l 929 490 b 767 360 832 490 767 446 b 836 253 767 296 799 264 b 757 139 790 238 757 197 b 919 -14 757 46 821 -14 z m 1144 206 b 1221 140 1193 206 1221 182 b 1126 74 1221 96 1182 74 l 942 74 b 846 140 886 74 846 96 b 924 206 846 182 874 206 z m 1121 403 b 1211 340 1179 403 1211 388 b 1138 279 1211 297 1188 279 l 929 279 b 856 340 879 279 856 297 b 946 403 856 388 889 403 z "},"⅜":{"ha":1350,"x_min":0,"x_max":0,"o":"m 404 521 b 567 674 503 521 567 582 b 488 788 567 732 533 772 b 557 894 525 799 557 831 b 394 1025 557 981 492 1025 l 60 1025 l 60 938 l 376 938 b 468 875 435 938 468 922 b 394 814 468 832 444 814 l 178 814 l 178 740 l 400 740 b 476 675 450 740 476 717 b 382 608 476 632 438 608 l 58 608 l 58 521 z m 244 -93 l 1154 1071 l 1036 1071 l 124 -93 z m 1129 -14 b 1292 139 1228 -14 1292 46 b 1213 253 1292 197 1258 238 b 1283 360 1250 264 1283 296 b 1119 490 1283 446 1218 490 l 911 490 b 749 360 814 490 749 446 b 818 253 749 296 781 264 b 739 139 772 238 739 197 b 901 -14 739 46 803 -14 z m 1126 206 b 1203 140 1175 206 1203 182 b 1108 74 1203 96 1164 74 l 924 74 b 828 140 868 74 828 96 b 906 206 828 182 856 206 z m 1103 403 b 1193 340 1161 403 1193 388 b 1119 279 1193 297 1169 279 l 911 279 b 838 340 861 279 838 297 b 928 403 838 388 871 403 z "},"⅝":{"ha":1351,"x_min":0,"x_max":0,"o":"m 438 521 b 593 668 542 521 593 583 b 438 814 593 767 539 814 l 150 814 l 150 938 l 569 938 l 569 1025 l 58 1025 l 58 740 l 438 740 b 510 675 483 740 510 718 b 438 608 510 635 485 608 l 58 608 l 58 521 z m 260 -93 l 1169 1071 l 1051 1071 l 139 -93 z m 1131 -14 b 1293 139 1229 -14 1293 46 b 1214 253 1293 197 1260 238 b 1285 360 1251 264 1285 296 b 1121 490 1285 446 1219 490 l 913 490 b 750 360 815 490 750 446 b 819 253 750 296 782 264 b 740 139 774 238 740 197 b 903 -14 740 46 804 -14 z m 1128 206 b 1204 140 1176 206 1204 182 b 1110 74 1204 96 1165 74 l 925 74 b 829 140 869 74 829 96 b 907 206 829 182 857 206 z m 1104 403 b 1194 340 1163 403 1194 388 b 1121 279 1194 297 1171 279 l 913 279 b 839 340 863 279 839 297 b 929 403 839 388 872 403 z "},"⅞":{"ha":1340,"x_min":0,"x_max":0,"o":"m 232 521 l 576 942 b 593 983 590 958 593 971 b 538 1025 593 1007 578 1025 l 114 1025 l 114 938 l 463 938 l 118 521 z m 179 -93 l 1089 1071 l 971 1071 l 58 -93 z m 1119 -14 b 1282 139 1218 -14 1282 46 b 1203 253 1282 197 1249 238 b 1274 360 1240 264 1274 296 b 1110 490 1274 446 1208 490 l 901 490 b 739 360 804 490 739 446 b 808 253 739 296 771 264 b 729 139 763 238 729 197 b 892 -14 729 46 793 -14 z m 1117 206 b 1193 140 1165 206 1193 182 b 1099 74 1193 96 1154 74 l 914 74 b 818 140 858 74 818 96 b 896 206 818 182 846 206 z m 1093 403 b 1183 340 1151 403 1183 388 b 1110 279 1183 297 1160 279 l 901 279 b 828 340 851 279 828 297 b 918 403 828 388 861 403 z "},"−":{"ha":958,"x_min":0,"x_max":0,"o":"m 871 456 l 871 572 l 88 572 l 88 456 z "},"≈":{"ha":960,"x_min":0,"x_max":0,"o":"m 872 443 b 671 361 832 403 750 361 b 289 456 535 361 424 456 b 89 382 210 456 139 431 l 89 254 b 289 338 133 301 214 338 b 671 243 425 338 538 243 b 872 314 746 243 818 264 z m 872 776 b 671 694 832 736 750 694 b 289 789 535 694 424 789 b 89 715 210 789 139 764 l 89 588 b 289 671 133 635 214 671 b 671 576 425 671 538 576 b 872 647 746 576 818 597 z "},"≠":{"ha":958,"x_min":0,"x_max":0,"o":"m 85 -93 l 365 267 l 871 267 l 871 383 l 457 383 l 658 642 l 871 642 l 871 758 l 750 758 l 994 1071 l 876 1071 l 632 758 l 88 758 l 88 642 l 540 642 l 338 383 l 88 383 l 88 267 l 246 267 l -36 -93 z "},"≤":{"ha":958,"x_min":0,"x_max":0,"o":"m 871 139 l 871 264 l 238 514 l 871 761 l 871 888 l 135 579 b 88 514 106 567 88 540 b 135 449 88 483 106 461 z m 871 -72 l 871 44 l 88 44 l 88 -72 z "},"≥":{"ha":958,"x_min":0,"x_max":0,"o":"m 824 449 b 871 514 853 461 871 483 b 824 579 871 540 853 567 l 88 888 l 88 761 l 721 514 l 88 264 l 88 139 z m 871 -72 l 871 44 l 88 44 l 88 -72 z "}}}
